<svg xmlns="http://www.w3.org/2000/svg" width="38" height="38" viewBox="0 0 38 38">
  <path id="Path_1736" data-name="Path 1736" d="M19,0A19,19,0,1,0,38,19,19,19,0,0,0,19,0ZM30.26,11.32V26.681a.635.635,0,0,0,.244.609l2.133,2.088v.457H21.9v-.459l2.213-2.141c.214-.214.214-.282.214-.609V14.216L18.178,29.8h-.831l-7.154-15.58V24.657a1.419,1.419,0,0,0,.4,1.2l2.874,3.478v.457H5.313v-.452l2.874-3.483a1.376,1.376,0,0,0,.368-1.2V12.586a1.07,1.07,0,0,0-.346-.893L5.658,8.621V8.164h7.934l6.135,13.423L25.121,8.164h7.567v.457L30.5,10.711h0A.632.632,0,0,0,30.26,11.32Z" fill="#fff"/>
</svg>
