<svg xmlns="http://www.w3.org/2000/svg" width="142.601" height="115" viewBox="0 0 142.601 115">
  <g id="Group_1035" data-name="Group 1035" transform="translate(-196.898 -1.687)">
    <g id="Group_1034" data-name="Group 1034" transform="translate(196.898 1.687)">
      <g id="Group_1033" data-name="Group 1033">
        <path id="Path_1625" data-name="Path 1625" d="M210.476,29.118a11.444,11.444,0,0,0-3.2-10.068A15.389,15.389,0,0,0,197.1,14.375s-1.377,6.357,3.028,10.907A13.316,13.316,0,0,0,210.476,29.118Z" transform="translate(-196.898 42.549)" fill="#f2ba27"/>
        <g id="Group_1032" data-name="Group 1032" transform="translate(1.945)">
          <path id="Path_1626" data-name="Path 1626" d="M212.389,51.577a34.566,34.566,0,0,1-.583-6.214,35.017,35.017,0,0,1,34.681-34.977V10.4A34.845,34.845,0,0,1,280.668,51.6h8.78a44.313,44.313,0,0,0,.489-6.214A43.73,43.73,0,0,0,246.567,1.714V1.687a43.358,43.358,0,0,0-42.958,49.89Z" transform="translate(-177.165 -1.687)" fill="#f2ba27"/>
          <path id="Path_1627" data-name="Path 1627" d="M204.778,32.8a13.311,13.311,0,0,0,6.178-9.139c.933-6.263-3.89-10.633-3.89-10.633a15.432,15.432,0,0,0-5.55,9.718A11.453,11.453,0,0,0,204.778,32.8Z" transform="translate(-183.23 37.846)" fill="#f2ba27"/>
          <path id="Path_1628" data-name="Path 1628" d="M202.9,26.861a11.458,11.458,0,0,0,4.545,9.543,13.322,13.322,0,0,0,4.935-9.87c.1-6.326-5.245-10.032-5.245-10.032A15.383,15.383,0,0,0,202.9,26.861Z" transform="translate(-177.913 49.965)" fill="#f2ba27"/>
          <path id="Path_1629" data-name="Path 1629" d="M208.631,18.542a15.438,15.438,0,0,0-3.244,10.718,11.428,11.428,0,0,0,5.42,9.067A13.294,13.294,0,0,0,214.8,28.04C214.3,21.732,208.631,18.542,208.631,18.542Z" transform="translate(-169.401 57.078)" fill="#f2ba27"/>
          <path id="Path_1630" data-name="Path 1630" d="M216.753,38.93a13.3,13.3,0,0,0,.857-11.005c-2.288-5.9-8.641-7.317-8.641-7.317a15.421,15.421,0,0,0-.018,11.194A11.444,11.444,0,0,0,216.753,38.93Z" transform="translate(-160.439 64.277)" fill="#f2ba27"/>
          <path id="Path_1631" data-name="Path 1631" d="M205.565,29.869a11.433,11.433,0,0,0,2.925-10.157,15.392,15.392,0,0,0-5.864-9.525s-4.67,4.527-3.531,10.759A13.268,13.268,0,0,0,205.565,29.869Z" transform="translate(-191.805 27.948)" fill="#f2ba27"/>
          <path id="Path_1632" data-name="Path 1632" d="M214.456,28.618a11.461,11.461,0,0,0-6.03-8.686,15.412,15.412,0,0,0-11.1-1.463s.561,6.478,6.111,9.534A13.278,13.278,0,0,0,214.456,28.618Z" transform="translate(-197.331 55.283)" fill="#f2ba27"/>
          <path id="Path_1633" data-name="Path 1633" d="M218.02,28.778a11.459,11.459,0,0,0-7.807-7.125,15.463,15.463,0,0,0-11.144,1.036s1.987,6.2,8.071,7.937A13.308,13.308,0,0,0,218.02,28.778Z" transform="translate(-191.271 65.873)" fill="#f2ba27"/>
          <path id="Path_1634" data-name="Path 1634" d="M221.155,27.929a11.466,11.466,0,0,0-9.6-4.424,15.371,15.371,0,0,0-10.305,4.361s3.769,5.308,10.095,5.124A13.319,13.319,0,0,0,221.155,27.929Z" transform="translate(-183.674 74.363)" fill="#f2ba27"/>
          <path id="Path_1635" data-name="Path 1635" d="M214.256,25.3a15.43,15.43,0,0,0-9.713,5.554s4.379,4.818,10.637,3.881a13.307,13.307,0,0,0,9.134-6.2A11.452,11.452,0,0,0,214.256,25.3Z" transform="translate(-172.187 80.119)" fill="#f2ba27"/>
          <path id="Path_1636" data-name="Path 1636" d="M203.276,15.358l-3.091-.1c-.013.332-.619,33.913,50.1,48.79l.87-2.97C202.859,46.907,203.231,16.646,203.276,15.358Z" transform="translate(-187.385 45.618)" fill="#f2ba27"/>
          <path id="Path_1637" data-name="Path 1637" d="M225.793,29.124a13.309,13.309,0,0,0,10.346-3.836c4.4-4.549,3.028-10.907,3.028-10.907A15.4,15.4,0,0,0,229,19.051,11.45,11.45,0,0,0,225.793,29.124Z" transform="translate(-98.714 42.57)" fill="#f2ba27"/>
          <path id="Path_1638" data-name="Path 1638" d="M222.162,23.664A13.283,13.283,0,0,0,228.34,32.8,11.46,11.46,0,0,0,231.6,22.749a15.412,15.412,0,0,0-5.545-9.718S221.229,17.4,222.162,23.664Z" transform="translate(-111.175 37.864)" fill="#f2ba27"/>
          <path id="Path_1639" data-name="Path 1639" d="M220.568,26.542a13.286,13.286,0,0,0,4.935,9.866,11.448,11.448,0,0,0,4.545-9.543,15.4,15.4,0,0,0-4.226-10.359S220.465,20.216,220.568,26.542Z" transform="translate(-116.32 49.979)" fill="#f2ba27"/>
          <path id="Path_1640" data-name="Path 1640" d="M218.158,28.046a13.307,13.307,0,0,0,3.993,10.287,11.416,11.416,0,0,0,5.42-9.067,15.477,15.477,0,0,0-3.248-10.718S218.656,21.738,218.158,28.046Z" transform="translate(-124.844 57.099)" fill="#f2ba27"/>
          <path id="Path_1641" data-name="Path 1641" d="M216.151,27.929a13.309,13.309,0,0,0,.861,11.005,11.422,11.422,0,0,0,7.8-7.129,15.472,15.472,0,0,0-.018-11.194S218.443,22.034,216.151,27.929Z" transform="translate(-134.609 64.295)" fill="#f2ba27"/>
          <path id="Path_1642" data-name="Path 1642" d="M234.093,20.951c1.14-6.232-3.531-10.759-3.531-10.759a15.41,15.41,0,0,0-5.868,9.529,11.454,11.454,0,0,0,2.925,10.157A13.269,13.269,0,0,0,234.093,20.951Z" transform="translate(-102.661 27.966)" fill="#f2ba27"/>
          <path id="Path_1643" data-name="Path 1643" d="M230.464,19.939a11.44,11.44,0,0,0-6.03,8.686,13.285,13.285,0,0,0,11.019-.615c5.541-3.051,6.106-9.534,6.106-9.534A15.412,15.412,0,0,0,230.464,19.939Z" transform="translate(-102.837 55.304)" fill="#f2ba27"/>
          <path id="Path_1644" data-name="Path 1644" d="M230.1,21.663a11.427,11.427,0,0,0-7.806,7.125,13.308,13.308,0,0,0,10.88,1.848c6.084-1.745,8.071-7.941,8.071-7.941A15.429,15.429,0,0,0,230.1,21.663Z" transform="translate(-110.315 65.891)" fill="#f2ba27"/>
          <path id="Path_1645" data-name="Path 1645" d="M229.5,23.509a11.47,11.47,0,0,0-9.6,4.433A13.282,13.282,0,0,0,229.708,33c6.326.184,10.095-5.128,10.095-5.128A15.418,15.418,0,0,0,229.5,23.509Z" transform="translate(-118.659 74.377)" fill="#f2ba27"/>
          <path id="Path_1646" data-name="Path 1646" d="M226.691,25.3a11.443,11.443,0,0,0-10.059,3.248,13.321,13.321,0,0,0,9.134,6.2c6.263.929,10.638-3.876,10.638-3.876A15.415,15.415,0,0,0,226.691,25.3Z" transform="translate(-130.038 80.137)" fill="#f2ba27"/>
          <path id="Path_1647" data-name="Path 1647" d="M265.012,15.26l-3.091.108c.04,1.279.408,31.54-47.884,45.713l.87,2.975C265.632,49.173,265.021,15.6,265.012,15.26Z" transform="translate(-139.086 45.635)" fill="#f2ba27"/>
        </g>
      </g>
    </g>
    <text id="_33" data-name="33" transform="translate(239.528 64.139)" fill="#f2ba27" font-size="39" font-family="Arial-Black, Arial" font-weight="800"><tspan x="0" y="0">33</tspan></text>
  </g>
</svg>
