<svg xmlns="http://www.w3.org/2000/svg" width="127.849" height="81.176" viewBox="0 0 127.849 81.176">
  <g id="Group_1041" data-name="Group 1041" transform="translate(0 -92.25)">
    <g id="Group_1024" data-name="Group 1024" transform="translate(0 92.25)">
      <path id="Path_1570" data-name="Path 1570" d="M110.571,127.969a14.6,14.6,0,1,0-16.746,0,25.29,25.29,0,0,0-8.626,5.059,32.725,32.725,0,0,0-11.839-6.451,18.492,18.492,0,1,0-19.124,0,33,33,0,0,0-11.712,6.375A25.5,25.5,0,0,0,34,127.994a14.6,14.6,0,1,0-16.746,0A25.621,25.621,0,0,0,0,152.2v1.67a.109.109,0,0,0,.1.1H31.039a34.023,34.023,0,0,0-.278,4.275v1.72a13.452,13.452,0,0,0,13.458,13.458h39.21a13.452,13.452,0,0,0,13.458-13.458v-1.72a34.022,34.022,0,0,0-.278-4.275h31.14a.109.109,0,0,0,.1-.1V152.2A25.719,25.719,0,0,0,110.571,127.969ZM91.649,116A10.549,10.549,0,1,1,102.4,126.552H102A10.533,10.533,0,0,1,91.649,116ZM49.3,110.742a14.444,14.444,0,1,1,15.279,14.419h-1.67A14.465,14.465,0,0,1,49.3,110.742ZM15,116a10.549,10.549,0,1,1,10.751,10.549h-.4A10.55,10.55,0,0,1,15,116Zm16.746,33.9H4.1a21.614,21.614,0,0,1,21.3-19.3h.3a21.389,21.389,0,0,1,13.787,5.135A33.214,33.214,0,0,0,31.747,149.9Zm61.04,10.068a9.425,9.425,0,0,1-9.41,9.41H44.168a9.425,9.425,0,0,1-9.41-9.41v-1.72a29.058,29.058,0,0,1,28.155-29.015c.278.025.582.025.86.025s.582,0,.86-.025a29.058,29.058,0,0,1,28.155,29.015ZM95.8,149.9a33.127,33.127,0,0,0-7.665-14.065,21.492,21.492,0,0,1,13.913-5.236h.3a21.614,21.614,0,0,1,21.3,19.3Z" transform="translate(0 -92.25)" fill="#f2ba27"/>
    </g>
  </g>
</svg>
