<svg xmlns="http://www.w3.org/2000/svg" width="65.421" height="65.351" viewBox="0 0 65.421 65.351">
  <g id="Group_1164" data-name="Group 1164" transform="translate(132.324 -276.53)">
    <g id="Group_1165" data-name="Group 1165">
      <circle id="Ellipse_139" data-name="Ellipse 139" cx="32.675" cy="32.675" r="32.675" transform="translate(-132.288 276.53)" fill="#fff068"/>
      <g id="Group_1164-2" data-name="Group 1164">
        <path id="Path_2137" data-name="Path 2137" d="M-99.613,276.53a32.583,32.583,0,0,1,32.634,34.884,32.8,32.8,0,0,1-32.634,30.467,32.8,32.8,0,0,1-32.634-30.467A32.582,32.582,0,0,1-99.613,276.53Z" fill="#f6c31f"/>
        <path id="Path_2138" data-name="Path 2138" d="M-132.247,311.414a32.585,32.585,0,0,0,10.95,22.245,32.412,32.412,0,0,1-10.239-21.582A32.562,32.562,0,0,1-98.9,277.294a32.485,32.485,0,0,1,23.843,10.341A32.568,32.568,0,0,0-99.613,276.53,32.582,32.582,0,0,0-132.247,311.414Z" fill="#f6c31f" opacity="0.4" style="mix-blend-mode: multiply;isolation: isolate"/>
        <path id="Path_2139" data-name="Path 2139" d="M-99.613,280.382A29.47,29.47,0,0,1-70.08,311.575a29.64,29.64,0,0,1-29.533,27.866,29.641,29.641,0,0,1-29.534-27.866A29.471,29.471,0,0,1-99.613,280.382Z" fill="#fff068"/>
        <path id="Path_2140" data-name="Path 2140" d="M-129.147,311.575a29.435,29.435,0,0,0,9.994,20.5,29.207,29.207,0,0,1-8.869-19.435,29.447,29.447,0,0,1,29.537-31.062,29.371,29.371,0,0,1,21.14,8.913,29.474,29.474,0,0,0-22.268-10.105A29.471,29.471,0,0,0-129.147,311.575Z" fill="#ffd138" opacity="0.4" style="mix-blend-mode: multiply;isolation: isolate"/>
      </g>
    </g>
    <g id="Group_1167" data-name="Group 1167">
      <g id="Group_1166" data-name="Group 1166">
        <path id="Path_2141" data-name="Path 2141" d="M-104.47,290.154a25.416,25.416,0,0,1,4.451,2.533,7.516,7.516,0,0,1,1.732,3.274,1.751,1.751,0,0,1-.607,1.61,2.607,2.607,0,0,1-2.04-.188,10.052,10.052,0,0,1-2-1.954c-1.9-2.091-3.865-1.936-5.169.591a27.307,27.307,0,0,0-1.44,4.184c-.172.535-.278,1.092-.486,1.931-1.17-4.165-.593-10.29,4.076-11.981Z" fill="#f6c31f"/>
        <path id="Path_2142" data-name="Path 2142" d="M-80.687,300.856a14.2,14.2,0,0,1-4.364,6.733c-2.426,2.032-4.851,1.884-6.572-.737a12.378,12.378,0,0,1-1.69-4.652,2.82,2.82,0,0,1,1.249-2.355c1.082-.515,1.741.579,2.137,1.52.342.817.55,1.689.861,2.521.614,1.638,1.511,1.975,2.963,1.027a11.409,11.409,0,0,0,4.538-5.707c.168-.45.205-1.056.878-.431Z" fill="#f6c31f"/>
        <path id="Path_2143" data-name="Path 2143" d="M-118.539,327.844l12.22-16.014c-.553-.685-1.309-1.255-1.525-1.984a3.557,3.557,0,0,1,.068-2.725c.447-.573,1.717-.676,2.62-.662a3.558,3.558,0,0,1,2.019.849c2.428,2.009,4.912,3.978,7.126,6.208,1.619,1.63,1.4,3.114-.135,4.853a3.224,3.224,0,0,1-.307.322c-3.4,2.925-7.531,3.866-11.758,4.545l-.182-.362c1.151-.7,2.337-1.359,3.446-2.124,1.586-1.094,3.137-2.24,4.658-3.421.649-.5,1.2-1.146.281-1.939a1.455,1.455,0,0,0-2.266-.067c-5.233,4.371-10.555,8.634-15.846,12.934Z" fill="#f6c31f"/>
        <path id="Path_2144" data-name="Path 2144" d="M-88.934,294.981a3.39,3.39,0,0,1-3.353,3.581,3.479,3.479,0,0,1-3.433-3.544,3.577,3.577,0,0,1,3.322-3.545A3.468,3.468,0,0,1-88.934,294.981Z" fill="#f6c31f"/>
      </g>
    </g>
  </g>
</svg>
