<svg xmlns="http://www.w3.org/2000/svg" width="108.576" height="108.922" viewBox="0 0 108.576 108.922">
  <g id="Group_1209" data-name="Group 1209" transform="translate(-19.122 -16)">
    <path id="Path_2273" data-name="Path 2273" d="M124.055,141.855a1.822,1.822,0,0,0-1.821-1.821H111.3a1.822,1.822,0,0,0-1.821,1.821v7.286h-9.107a1.822,1.822,0,0,0-1.821,1.821v5.464H89.447a1.822,1.822,0,0,0-1.821,1.821v17.19l-7.342-8.811a20.478,20.478,0,0,0-1-19.042l7.163-5.731H98.554v-3.643H85.8a1.821,1.821,0,0,0-1.138.4l-7.525,6.02c-.053-.061-.1-.123-.156-.184L67.878,134.2l1.645-4.113a3.794,3.794,0,0,0-4.722-5.009.151.151,0,0,1-.174-.059l-1.8-2.7a5.225,5.225,0,0,0-8.695,0l-1.8,2.7a.151.151,0,0,1-.174.059,3.794,3.794,0,0,0-4.722,5.008l1.645,4.113L39.98,144.447a20.476,20.476,0,0,0-3.768,21.069l-17.09,13.146,2.221,2.887,3.736-2.874,14.46,19.281-5.829,4.371,2.186,2.914,7.111-5.333,12.549-5.378a1.823,1.823,0,0,0,.912-.86l3.291-6.582,15.228-4.568a4.953,4.953,0,0,0,1.033-9.046l2.323-3.484,7.883,9.459a1.822,1.822,0,0,0,1.4.656H127.7v-3.643h-3.643Zm-73.2-13.28a.129.129,0,0,1,.158-.04,3.8,3.8,0,0,0,4.357-1.495l1.8-2.7a1.582,1.582,0,0,1,2.632,0l1.8,2.7a3.8,3.8,0,0,0,4.356,1.495.151.151,0,0,1,.188.2l-1.605,4.013H52.43l-1.605-4.013A.128.128,0,0,1,50.855,128.575ZM38.447,158.06A16.83,16.83,0,0,1,42.7,146.868l9.313-10.477H54.4a11.069,11.069,0,0,0-1.283,9.683l3.456-1.152a7.458,7.458,0,0,1,1.811-7.673l.1-.1.1.1a7.458,7.458,0,0,1,1.812,7.673l3.456,1.152a11.069,11.069,0,0,0-1.283-9.683h2.38l9.313,10.477a16.847,16.847,0,0,1,1.426,20.537l-3.61,5.414H48.68l1.7-3.409a7.734,7.734,0,0,0,.813-3.442,5.9,5.9,0,0,0-9.5-4.676l-2.455,1.888A16.952,16.952,0,0,1,38.447,158.06Zm35.494,20.97-15.982,4.794a1.822,1.822,0,0,0-1.106.93l-3.345,6.689-10.821,4.638L27.967,176.454,43.922,164.18a2.256,2.256,0,0,1,3.632,1.788,4.075,4.075,0,0,1-.428,1.813L44.1,173.827a1.821,1.821,0,0,0,1.629,2.636H73.564a1.312,1.312,0,0,1,.377,2.568ZM91.269,160.07h7.286v16.393H91.269Zm10.929-7.286h7.286v23.679H102.2Zm10.929,23.679V143.677h7.286v32.786Z" transform="translate(0 -80.319)" fill="#ff112d"/>
    <path id="Path_2274" data-name="Path 2274" d="M340.036,16a20.036,20.036,0,1,0,20.036,20.036A20.036,20.036,0,0,0,340.036,16Zm16.289,18.214H348.96a9.135,9.135,0,0,0-7.1-7.1V19.746A16.421,16.421,0,0,1,356.325,34.214Zm-8.695,6.84a9.053,9.053,0,0,0,1.329-3.2h7.365a16.314,16.314,0,0,1-3.489,8.4Zm-7.594-10.483a5.464,5.464,0,1,1-5.464,5.464A5.464,5.464,0,0,1,340.036,30.572Zm-16.393,5.464a16.415,16.415,0,0,1,14.572-16.289v7.365a9.107,9.107,0,1,0,6.84,16.518l5.206,5.205a16.38,16.38,0,0,1-26.617-12.8Z" transform="translate(-232.374)" fill="#ff112d"/>
  </g>
</svg>
