<svg id="Group_1070" data-name="Group 1070" xmlns="http://www.w3.org/2000/svg" width="38" height="38" viewBox="0 0 38 38">
  <path id="Path_1561" data-name="Path 1561" d="M224.113,215.158l6.18-3.56-6.18-3.56Z" transform="translate(-207.48 -192.599)" fill="#fff"/>
  <path id="Path_1562" data-name="Path 1562" d="M19,0A19,19,0,1,0,38,19,19,19,0,0,0,19,0ZM30.872,19.019a31.359,31.359,0,0,1-.489,5.711,2.975,2.975,0,0,1-2.093,2.093c-1.858.489-9.29.489-9.29.489s-7.413,0-9.29-.509a2.975,2.975,0,0,1-2.093-2.093A31.22,31.22,0,0,1,7.128,19a31.337,31.337,0,0,1,.489-5.711A3.035,3.035,0,0,1,9.71,11.177c1.858-.489,9.29-.489,9.29-.489s7.432,0,9.29.509a2.975,2.975,0,0,1,2.093,2.093A29.756,29.756,0,0,1,30.872,19.019Z" fill="#fff"/>
</svg>
