<svg xmlns="http://www.w3.org/2000/svg" width="110.768" height="108.226" viewBox="0 0 110.768 108.226">
  <g id="Group_1026" data-name="Group 1026" transform="translate(0 -6)">
    <path id="Path_1571" data-name="Path 1571" d="M203.3,453.769l-.325,1.59.314-1.591a1.622,1.622,0,1,0-.627,3.183l.03.006a1.669,1.669,0,0,0,.307.029,1.623,1.623,0,0,0,.3-3.217Z" transform="translate(-157.792 -350.872)" fill="#f2ba27"/>
    <path id="Path_1572" data-name="Path 1572" d="M262.409,456.265l.161,1.614-.166-1.613a1.623,1.623,0,0,0,.164,3.237c.056,0,.113,0,.168-.008l.045,0a1.623,1.623,0,0,0-.372-3.224Z" transform="translate(-204.493 -352.846)" fill="#f2ba27"/>
    <path id="Path_1573" data-name="Path 1573" d="M232.809,457.234h-.024a1.613,1.613,0,0,0-1.682,1.549,1.632,1.632,0,0,0,1.558,1.694c.026,0,.05,0,.075,0a1.623,1.623,0,0,0,.072-3.243Z" transform="translate(-181.104 -353.61)" fill="#f2ba27"/>
    <path id="Path_1574" data-name="Path 1574" d="M174.757,445.893l-.02-.008a1.613,1.613,0,0,0-2.065.982,1.628,1.628,0,1,0,2.086-.974Z" transform="translate(-135.241 -344.644)" fill="#f2ba27"/>
    <path id="Path_1575" data-name="Path 1575" d="M291.576,450.856l.4,1.573-.4-1.571a1.623,1.623,0,0,0,.4,3.194,1.606,1.606,0,0,0,.406-.052l.043-.011a1.623,1.623,0,0,0-.848-3.133Z" transform="translate(-227.536 -348.573)" fill="#f2ba27"/>
    <path id="Path_1576" data-name="Path 1576" d="M319.57,441.091l.643,1.489-.648-1.487a1.623,1.623,0,1,0,1.3,2.976l.04-.018a1.622,1.622,0,0,0-1.33-2.96Z" transform="translate(-249.665 -340.854)" fill="#f2ba27"/>
    <path id="Path_1577" data-name="Path 1577" d="M148.107,87.937a1.623,1.623,0,1,0-.758-3.056l-.019.01a1.62,1.62,0,0,0,.778,3.046Z" transform="translate(-114.788 -61.665)" fill="#f2ba27"/>
    <path id="Path_1578" data-name="Path 1578" d="M64.106,172.314a1.622,1.622,0,0,0,2.191-.684l.029-.057a1.623,1.623,0,1,0-2.22.74Z" transform="translate(-49.556 -127.92)" fill="#f2ba27"/>
    <path id="Path_1579" data-name="Path 1579" d="M52.7,200.163a1.621,1.621,0,0,0,2.057-1.017l.021-.064a1.623,1.623,0,1,0-2.078,1.081Z" transform="translate(-40.434 -149.665)" fill="#f2ba27"/>
    <path id="Path_1580" data-name="Path 1580" d="M79.631,146.547a1.621,1.621,0,0,0,2.266-.357l.021-.029a1.623,1.623,0,0,0-2.64-1.887l1.307.962-1.313-.955A1.623,1.623,0,0,0,79.631,146.547Z" transform="translate(-61.88 -107.829)" fill="#f2ba27"/>
    <path id="Path_1581" data-name="Path 1581" d="M122.667,104.083a1.63,1.63,0,1,0-.94-2.949l-.04.03a1.624,1.624,0,0,0,.98,2.919Z" transform="translate(-94.857 -74.307)" fill="#f2ba27"/>
    <path id="Path_1582" data-name="Path 1582" d="M49.715,317.742a1.621,1.621,0,1,0-.021-.071Z" transform="translate(-38.898 -242.636)" fill="#f2ba27"/>
    <path id="Path_1583" data-name="Path 1583" d="M100.013,123.865a1.628,1.628,0,1,0-1.133-2.782l-.027.027a1.621,1.621,0,0,0,1.16,2.755Z" transform="translate(-77.104 -89.813)" fill="#f2ba27"/>
    <path id="Path_1584" data-name="Path 1584" d="M46.581,287.607a1.623,1.623,0,0,0-3.221.4l.009.065a1.62,1.62,0,0,0,1.6,1.384,1.645,1.645,0,0,0,.237-.018A1.624,1.624,0,0,0,46.581,287.607Z" transform="translate(-33.971 -219.576)" fill="#f2ba27"/>
    <path id="Path_1585" data-name="Path 1585" d="M43.165,259.415h.049a1.622,1.622,0,0,0,1.621-1.575l0-.069a1.623,1.623,0,1,0-1.672,1.644Z" transform="translate(-32.593 -196.031)" fill="#f2ba27"/>
    <path id="Path_1586" data-name="Path 1586" d="M45.669,229.426a1.655,1.655,0,0,0,.288.026,1.624,1.624,0,0,0,1.6-1.337c0-.024.008-.047.011-.071a1.623,1.623,0,1,0-1.895,1.382Z" transform="translate(-34.741 -172.549)" fill="#f2ba27"/>
    <path id="Path_1587" data-name="Path 1587" d="M403.214,150.317a1.622,1.622,0,0,0,2.671-1.842l-1.349.9,1.344-.91a1.623,1.623,0,1,0-2.687,1.821Z" transform="translate(-315.746 -111.087)" fill="#f2ba27"/>
    <path id="Path_1588" data-name="Path 1588" d="M437.381,235.034a1.622,1.622,0,0,0-1.431,1.794l.008.07a1.624,1.624,0,0,0,1.6,1.393,1.651,1.651,0,0,0,.232-.016,1.634,1.634,0,0,0-.414-3.241Z" transform="translate(-341.627 -179.476)" fill="#f2ba27"/>
    <path id="Path_1589" data-name="Path 1589" d="M429.7,206.367l.007.021a1.622,1.622,0,0,0,1.556,1.165,1.6,1.6,0,0,0,.458-.067,1.622,1.622,0,0,0,1.1-2.015l-.007-.021a1.623,1.623,0,1,0-3.113.916Z" transform="translate(-336.689 -155.388)" fill="#f2ba27"/>
    <path id="Path_1590" data-name="Path 1590" d="M418.709,177.317a1.631,1.631,0,0,0,1.464.911,1.6,1.6,0,0,0,.712-.167,1.617,1.617,0,0,0,.741-2.167l-1.47.685,1.469-.689a1.623,1.623,0,0,0-2.938,1.377Z" transform="translate(-327.985 -132.405)" fill="#f2ba27"/>
    <path id="Path_1591" data-name="Path 1591" d="M383.673,126.126a1.636,1.636,0,1,0-.049-.051Z" transform="translate(-300.293 -91.963)" fill="#f2ba27"/>
    <path id="Path_1592" data-name="Path 1592" d="M438.987,266.385a1.633,1.633,0,0,0-.139,3.262l.092,0a1.623,1.623,0,0,0,1.618-1.533l0-.067A1.62,1.62,0,0,0,438.987,266.385Z" transform="translate(-342.706 -204.052)" fill="#f2ba27"/>
    <path id="Path_1593" data-name="Path 1593" d="M334.4,88.316l.039.021a1.616,1.616,0,0,0,2.185-.667,1.628,1.628,0,0,0-.659-2.2l-.785,1.42.78-1.423a1.622,1.622,0,1,0-1.56,2.845Z" transform="translate(-261.391 -62.121)" fill="#f2ba27"/>
    <path id="Path_1594" data-name="Path 1594" d="M360.517,105.256l.026.019a1.623,1.623,0,0,0,1.961-2.586l-.011-.008a1.622,1.622,0,1,0-1.976,2.574Z" transform="translate(-282.024 -75.502)" fill="#f2ba27"/>
    <path id="Path_1595" data-name="Path 1595" d="M109.766,86.9l-7.617-7.63a3.426,3.426,0,0,0-4.852,0l-.177.177-.5-.5A6.549,6.549,0,0,1,95.2,76.818a1.591,1.591,0,0,0-.116-.3,6.56,6.56,0,0,1-.378-2.2V72.155a1.634,1.634,0,1,0-.01-2.884,9.148,9.148,0,0,0-2.682-6.1l-7.389-7.4A8.767,8.767,0,0,0,73.415,54.76l-.784-.788V35.413a9.213,9.213,0,0,0-2.286-6.076,6.549,6.549,0,0,1-1.626-4.322v-1.36h.111a3.434,3.434,0,0,0,3.43-3.431V9.431A3.435,3.435,0,0,0,68.83,6H38.521a3.435,3.435,0,0,0-3.43,3.431V20.225a3.434,3.434,0,0,0,3.43,3.431h.25v.712A6.51,6.51,0,0,1,36.856,29l-3.271,3.277a9.154,9.154,0,0,0-2.692,6.51V49.253a8.75,8.75,0,0,0,.942,3.955,8.713,8.713,0,0,0-5.693,2.559l-7.389,7.4a9.155,9.155,0,0,0-2.692,6.51v4.634a6.509,6.509,0,0,1-1.914,4.63l-.495.5-.006,0-.176-.177a3.426,3.426,0,0,0-4.852,0L1,86.9A3.44,3.44,0,0,0,1,91.75L3.61,94.362a1.622,1.622,0,1,0,2.3-2.293L3.3,89.456a.188.188,0,0,1,0-.266l7.618-7.63a.182.182,0,0,1,.258,0L12.5,82.886h0L30.581,101l2.026,2.03a.188.188,0,0,1,0,.266l-7.617,7.63a.182.182,0,0,1-.259,0L10.5,96.671a1.623,1.623,0,0,0-2.3,2.293l14.232,14.256a3.427,3.427,0,0,0,4.852,0l7.617-7.63a3.439,3.439,0,0,0,0-4.852l-.083-.083.961-.963a6.52,6.52,0,0,1,4.2-1.9,9.181,9.181,0,0,0,5.908-2.679l7-7.013A5.556,5.556,0,0,0,56.9,83.865a5.532,5.532,0,0,0,7.906-5.006V75.006a5.53,5.53,0,0,0,7.823-5.043V58.572l4.991,5.016a1.623,1.623,0,0,0,2.3-2.289L75.76,57.117a5.526,5.526,0,0,1,6.569.943l7.389,7.4a5.932,5.932,0,0,1,1.744,4.217v4.634a9.735,9.735,0,0,0,2.862,6.923l.5.5L92.474,84.1,78.239,98.357l-.794-.8-.025-.024-.139-.14A9.77,9.77,0,0,0,71,94.55a5.95,5.95,0,0,1-3.827-1.737l-5.332-5.3a1.622,1.622,0,1,0-2.288,2.3l5.328,5.3a9.182,9.182,0,0,0,5.909,2.679,6.523,6.523,0,0,1,4.2,1.9l.079.079a1.525,1.525,0,0,0,.134.135l.748.749-.083.084a3.439,3.439,0,0,0,0,4.852l7.617,7.63a3.428,3.428,0,0,0,4.853,0l21.433-21.47A3.439,3.439,0,0,0,109.766,86.9ZM95.794,70.763l-.031,0-.3-.06Zm-52.2,22.054A5.937,5.937,0,0,1,39.77,94.55,9.77,9.77,0,0,0,33.486,97.4l-.958.959-.862-.864-.033-.033L15.94,81.74l.5-.5a9.735,9.735,0,0,0,2.862-6.923V69.678a5.929,5.929,0,0,1,1.744-4.217l7.389-7.4a5.525,5.525,0,0,1,6.577-.938L30.848,61.3a1.623,1.623,0,0,0,2.3,2.293L38.124,58.6V78.859a5.533,5.533,0,0,0,7.936,4.992,5.562,5.562,0,0,0,2.75,3.736ZM69.385,69.963a2.289,2.289,0,1,1-4.579,0v-18.1a1.623,1.623,0,0,0-3.245,0v27a2.288,2.288,0,0,1-4.545.379V51.845a1.64,1.64,0,0,0-3.279.019V78.859a5.535,5.535,0,0,0,.034.608v3.27a2.289,2.289,0,1,1-4.578,0V51.826a1.623,1.623,0,0,0-3.246,0V78.859a2.289,2.289,0,1,1-4.578,0V48.676a1.623,1.623,0,1,0-3.245,0v5.583a1.59,1.59,0,0,0-.391.187,5.552,5.552,0,0,1-3.6-5.193V38.784a5.932,5.932,0,0,1,1.743-4.217l3.272-3.277a9.732,9.732,0,0,0,2.863-6.923v-.712h3.262a1.623,1.623,0,1,0,0-3.245H38.521a.186.186,0,0,1-.185-.186V9.431a.186.186,0,0,1,.185-.186H68.829a.186.186,0,0,1,.186.186V20.225a.185.185,0,0,1-.186.186H52.9a1.623,1.623,0,0,0,0,3.245H65.473v1.36a9.8,9.8,0,0,0,2.43,6.462,5.965,5.965,0,0,1,1.482,3.935Zm38.084,19.493-21.433,21.47a.174.174,0,0,1-.129.054.176.176,0,0,1-.129-.054l-7.617-7.63a.188.188,0,0,1,0-.266l1.226-1.229h0L91.83,89.337l7.764-7.777a.181.181,0,0,1,.258,0l7.618,7.63A.188.188,0,0,1,107.469,89.456Z" transform="translate(0)" fill="#f2ba27"/>
    <path id="Path_1596" data-name="Path 1596" d="M195.543,38.805a1.731,1.731,0,1,0,1.728,1.731A1.731,1.731,0,0,0,195.543,38.805Z" transform="translate(-151.885 -25.708)" fill="#f2ba27"/>
    <path id="Path_1597" data-name="Path 1597" d="M457.142,380.688a1.731,1.731,0,1,0,1.728,1.731A1.731,1.731,0,0,0,457.142,380.688Z" transform="translate(-356.888 -293.627)" fill="#f2ba27"/>
    <path id="Path_1598" data-name="Path 1598" d="M112.467,450.935a1.728,1.728,0,1,0-1.727,1.731A1.731,1.731,0,0,0,112.467,450.935Z" transform="translate(-85.428 -347.32)" fill="#f2ba27"/>
  </g>
</svg>
