<svg xmlns="http://www.w3.org/2000/svg" width="92.814" height="92.814" viewBox="0 0 92.814 92.814">
  <g id="Group_1028" data-name="Group 1028" transform="translate(-791.064 -4277.064)">
    <g id="Group_1027" data-name="Group 1027" transform="translate(791.064 4277.064)">
      <path id="Path_1599" data-name="Path 1599" d="M99.116,71.593l-6.383-6.383A28.4,28.4,0,0,0,50.486,28.958H33.859a11.971,11.971,0,1,0-15.385.349A13.489,13.489,0,0,0,8,42.431v8.982A10.494,10.494,0,0,0,15.485,61.45V94.826a5.963,5.963,0,0,0,10.479,3.919,5.963,5.963,0,0,0,10.479-3.919V92.452l12.6-12.6-1.5-1.5,3.829-3.829a28.276,28.276,0,0,0,10.521,4.68v7.8l3.617.9-1.918,3.2,8,8L74.79,97.2l.9,3.615h11.32l.9-3.617,3.195,1.919,8-8-1.918-3.2,3.617-.9V75.693l-3.617-.9Zm-5.787-20.18A25.449,25.449,0,1,1,67.88,25.964,25.477,25.477,0,0,1,93.329,51.413Zm-4.491,29.94a7.486,7.486,0,1,1-14.59-2.243A28.279,28.279,0,0,0,84.38,74.536a7.455,7.455,0,0,1,4.458,6.817Zm-49.4-11.1-2.994,2.994V61.892h.749a5.225,5.225,0,0,0,3.707-1.54,28.358,28.358,0,0,0,3.865,7.57l-3.829,3.829Zm0-18.841c0,.183.024.359.027.54a5.179,5.179,0,0,0-2.272-.54h-.749v-9.73a2.248,2.248,0,0,1,2.245-2.245h3.428A28.244,28.244,0,0,0,39.437,51.413ZM27.4,43.37l-1.436,1.436L24.528,43.37l1.109-11.418h.651ZM16.982,19.976a8.982,8.982,0,1,1,8.982,8.982A8.991,8.991,0,0,1,16.982,19.976Zm4.491,11.976H22.63L21.412,44.486l4.552,4.552,4.552-4.552L29.3,31.952h17.9a28.646,28.646,0,0,0-3.454,4.491H38.688a5.245,5.245,0,0,0-5.239,5.24v9.73H19.976a1.5,1.5,0,0,1-1.5-1.5V39.437H15.485v8.982H10.994V42.431A10.491,10.491,0,0,1,21.473,31.952ZM10.994,51.413H15.76a4.485,4.485,0,0,0,4.216,2.994H37.191a2.245,2.245,0,1,1,0,4.491H18.479A7.493,7.493,0,0,1,10.994,51.413ZM30.455,97.82a3,3,0,0,1-2.994-2.994V67.88H24.467V94.826a2.994,2.994,0,0,1-5.988,0V61.892h14.97V94.826A3,3,0,0,1,30.455,97.82Zm5.988-9.6V77.482l2.994-2.994,5.368,5.368Zm8.982-11.976-2.374-2.374,3.6-3.6a28.424,28.424,0,0,0,2.374,2.374ZM97.82,78.031v6.644L94.9,85.4l-.8.308-.7,1.705,1.94,3.232-4.7,4.7-3.231-1.939-1.826.743-.916,3.671H78.031L77.3,94.9l-.3-.8-1.71-.695-3.231,1.939-4.7-4.7,1.94-3.232-.749-1.826-3.666-.915V79.7a27.558,27.558,0,0,0,6.135-.022A10.477,10.477,0,1,0,86.9,72.5a28.707,28.707,0,0,0,4.19-4.7l4.257,4.257-1.94,3.232.753,1.826Z" transform="translate(-8 -8)" fill="#f2ba27"/>
      <path id="Path_1600" data-name="Path 1600" d="M230.455,164.91A22.455,22.455,0,1,0,208,142.455,22.48,22.48,0,0,0,230.455,164.91Zm-7.485-14.97h2.994v11.433a19.121,19.121,0,0,1-2.994-.958Zm-2.994,8.888a19.54,19.54,0,0,1-2.994-2.362V140.958h2.994Zm8.982,3.012V128.982h2.994V161.84c-.5.039-.991.076-1.5.076S229.453,161.879,228.958,161.84Zm5.988-17.888h2.994v16.462a19.439,19.439,0,0,1-2.994.958Zm8.982,12.513a19.54,19.54,0,0,1-2.994,2.362V137.964h2.994Zm-13.473-33.471a19.424,19.424,0,0,1,16.467,29.784V134.97H237.94v5.988h-2.994v-14.97h-8.982v20.958H222.97v-8.982h-8.982v14.814a19.424,19.424,0,0,1,16.467-29.784Z" transform="translate(-170.575 -99.042)" fill="#f2ba27"/>
    </g>
  </g>
</svg>
