<svg id="Group_1030" data-name="Group 1030" xmlns="http://www.w3.org/2000/svg" width="142.601" height="115" viewBox="0 0 142.601 115">
  <path id="Path_1601" data-name="Path 1601" d="M13.578,30.507a11.444,11.444,0,0,0-3.2-10.068A15.388,15.388,0,0,0,.2,15.764s-1.377,6.357,3.028,10.907A13.316,13.316,0,0,0,13.578,30.507Z" transform="translate(0 41.16)" fill="#f2ba27"/>
  <g id="Group_1029" data-name="Group 1029" transform="translate(1.945)">
    <path id="Path_1602" data-name="Path 1602" d="M38.943,58.558V8.978H27.26A10.4,10.4,0,0,1,25.8,14.142a10.122,10.122,0,0,1-3.378,3.347,14.694,14.694,0,0,1-4.635,1.781,23.044,23.044,0,0,1-5.272.467V29.993H24.129V58.558Z" transform="translate(41.684 17.501)" fill="#f2ba27"/>
    <path id="Path_1603" data-name="Path 1603" d="M15.491,52.966a34.567,34.567,0,0,1-.583-6.214A35.017,35.017,0,0,1,49.588,11.775v.018A34.845,34.845,0,0,1,83.77,52.988h8.78a44.312,44.312,0,0,0,.489-6.214A43.73,43.73,0,0,0,49.669,3.1V3.076A43.359,43.359,0,0,0,6.711,52.966Z" transform="translate(19.733 -3.076)" fill="#f2ba27"/>
    <path id="Path_1604" data-name="Path 1604" d="M7.88,34.187a13.311,13.311,0,0,0,6.178-9.139c.933-6.263-3.89-10.633-3.89-10.633a15.432,15.432,0,0,0-5.55,9.718A11.454,11.454,0,0,0,7.88,34.187Z" transform="translate(13.668 36.457)" fill="#f2ba27"/>
    <path id="Path_1605" data-name="Path 1605" d="M6,28.25a11.458,11.458,0,0,0,4.545,9.543,13.322,13.322,0,0,0,4.935-9.87c.1-6.326-5.245-10.032-5.245-10.032A15.383,15.383,0,0,0,6,28.25Z" transform="translate(18.985 48.576)" fill="#f2ba27"/>
    <path id="Path_1606" data-name="Path 1606" d="M11.733,19.931A15.438,15.438,0,0,0,8.489,30.649a11.428,11.428,0,0,0,5.42,9.067A13.294,13.294,0,0,0,17.9,29.429C17.4,23.121,11.733,19.931,11.733,19.931Z" transform="translate(27.497 55.689)" fill="#f2ba27"/>
    <path id="Path_1607" data-name="Path 1607" d="M19.855,40.319a13.3,13.3,0,0,0,.857-11.005C18.424,23.418,12.071,22,12.071,22a15.421,15.421,0,0,0-.018,11.194A11.444,11.444,0,0,0,19.855,40.319Z" transform="translate(36.46 62.888)" fill="#f2ba27"/>
    <path id="Path_1608" data-name="Path 1608" d="M8.667,31.258A11.433,11.433,0,0,0,11.592,21.1a15.392,15.392,0,0,0-5.864-9.525S1.058,16.1,2.2,22.335A13.268,13.268,0,0,0,8.667,31.258Z" transform="translate(5.093 26.559)" fill="#f2ba27"/>
    <path id="Path_1609" data-name="Path 1609" d="M17.558,30.007a11.461,11.461,0,0,0-6.03-8.686,15.412,15.412,0,0,0-11.1-1.463s.561,6.478,6.111,9.534A13.278,13.278,0,0,0,17.558,30.007Z" transform="translate(-0.433 53.894)" fill="#f2ba27"/>
    <path id="Path_1610" data-name="Path 1610" d="M21.122,30.167a11.459,11.459,0,0,0-7.806-7.125A15.463,15.463,0,0,0,2.171,24.079s1.988,6.2,8.071,7.937A13.308,13.308,0,0,0,21.122,30.167Z" transform="translate(5.627 64.484)" fill="#f2ba27"/>
    <path id="Path_1611" data-name="Path 1611" d="M24.257,29.318a11.466,11.466,0,0,0-9.6-4.424A15.371,15.371,0,0,0,4.35,29.255s3.769,5.308,10.095,5.124A13.319,13.319,0,0,0,24.257,29.318Z" transform="translate(13.224 72.974)" fill="#f2ba27"/>
    <path id="Path_1612" data-name="Path 1612" d="M17.358,26.685a15.43,15.43,0,0,0-9.713,5.554s4.379,4.818,10.637,3.881a13.307,13.307,0,0,0,9.134-6.2A11.452,11.452,0,0,0,17.358,26.685Z" transform="translate(24.712 78.73)" fill="#f2ba27"/>
    <path id="Path_1613" data-name="Path 1613" d="M6.378,16.747l-3.091-.1c-.013.332-.619,33.913,50.105,48.79l.87-2.97C5.961,48.3,6.333,18.035,6.378,16.747Z" transform="translate(9.513 44.229)" fill="#f2ba27"/>
    <path id="Path_1614" data-name="Path 1614" d="M28.9,30.513a13.309,13.309,0,0,0,10.346-3.836c4.4-4.549,3.028-10.907,3.028-10.907A15.4,15.4,0,0,0,32.1,20.44,11.45,11.45,0,0,0,28.9,30.513Z" transform="translate(98.184 41.181)" fill="#f2ba27"/>
    <path id="Path_1615" data-name="Path 1615" d="M25.264,25.053a13.283,13.283,0,0,0,6.178,9.139A11.46,11.46,0,0,0,34.7,24.138a15.411,15.411,0,0,0-5.545-9.718S24.331,18.79,25.264,25.053Z" transform="translate(85.723 36.475)" fill="#f2ba27"/>
    <path id="Path_1616" data-name="Path 1616" d="M23.67,27.931A13.286,13.286,0,0,0,28.605,37.8a11.448,11.448,0,0,0,4.545-9.543A15.4,15.4,0,0,0,28.924,17.9S23.567,21.605,23.67,27.931Z" transform="translate(80.578 48.59)" fill="#f2ba27"/>
    <path id="Path_1617" data-name="Path 1617" d="M21.26,29.435a13.307,13.307,0,0,0,3.993,10.287,11.416,11.416,0,0,0,5.42-9.067,15.477,15.477,0,0,0-3.248-10.718S21.758,23.127,21.26,29.435Z" transform="translate(72.054 55.71)" fill="#f2ba27"/>
    <path id="Path_1618" data-name="Path 1618" d="M19.253,29.318a13.309,13.309,0,0,0,.861,11.005,11.422,11.422,0,0,0,7.8-7.129A15.471,15.471,0,0,0,27.9,22S21.545,23.423,19.253,29.318Z" transform="translate(62.289 62.906)" fill="#f2ba27"/>
    <path id="Path_1619" data-name="Path 1619" d="M37.195,22.34c1.14-6.232-3.531-10.759-3.531-10.759A15.41,15.41,0,0,0,27.8,21.11a11.454,11.454,0,0,0,2.925,10.157A13.269,13.269,0,0,0,37.195,22.34Z" transform="translate(94.237 26.577)" fill="#f2ba27"/>
    <path id="Path_1620" data-name="Path 1620" d="M33.566,21.328a11.44,11.44,0,0,0-6.03,8.686A13.285,13.285,0,0,0,38.555,29.4c5.541-3.051,6.106-9.534,6.106-9.534A15.412,15.412,0,0,0,33.566,21.328Z" transform="translate(94.061 53.915)" fill="#f2ba27"/>
    <path id="Path_1621" data-name="Path 1621" d="M33.2,23.052a11.427,11.427,0,0,0-7.806,7.125,13.308,13.308,0,0,0,10.88,1.848c6.084-1.745,8.071-7.941,8.071-7.941A15.429,15.429,0,0,0,33.2,23.052Z" transform="translate(86.583 64.502)" fill="#f2ba27"/>
    <path id="Path_1622" data-name="Path 1622" d="M32.6,24.9A11.47,11.47,0,0,0,23,29.331a13.282,13.282,0,0,0,9.812,5.056c6.326.184,10.095-5.128,10.095-5.128A15.418,15.418,0,0,0,32.6,24.9Z" transform="translate(78.239 72.988)" fill="#f2ba27"/>
    <path id="Path_1623" data-name="Path 1623" d="M29.793,26.689a11.443,11.443,0,0,0-10.059,3.248,13.321,13.321,0,0,0,9.134,6.2c6.263.929,10.637-3.876,10.637-3.876A15.415,15.415,0,0,0,29.793,26.689Z" transform="translate(66.86 78.748)" fill="#f2ba27"/>
    <path id="Path_1624" data-name="Path 1624" d="M68.114,16.649l-3.091.108c.04,1.279.408,31.54-47.884,45.713l.87,2.975C68.734,50.562,68.123,16.985,68.114,16.649Z" transform="translate(57.812 44.246)" fill="#f2ba27"/>
  </g>
</svg>
