<svg xmlns="http://www.w3.org/2000/svg" width="108.777" height="109.5" viewBox="0 0 108.777 109.5">
  <g id="Group_932" data-name="Group 932" transform="translate(-173 -2783.55)">
    <g id="Group_897" data-name="Group 897" transform="translate(173 2783.55)">
      <path id="Path_316" data-name="Path 316" d="M50.254,1468.575c4.32,2.361,9.126,4.152,12.791,7.28,2.532,2.161,3.821,6.054,4.977,9.41.44,1.276-.66,4.2-1.744,4.625a7.486,7.486,0,0,1-5.863-.541c-2.234-1.354-3.945-3.623-5.756-5.613-5.471-6.011-11.106-5.564-14.853,1.7-1.923,3.728-2.837,7.984-4.138,12.023-.5,1.538-.8,3.137-1.4,5.549-3.36-11.967-1.7-29.57,11.714-34.431Z" transform="translate(-9.822 -1468.575)" fill="#ff112d"/>
      <path id="Path_317" data-name="Path 317" d="M386.072,1629.042a40.784,40.784,0,0,1-12.542,19.348c-6.97,5.841-13.939,5.415-18.887-2.118a35.6,35.6,0,0,1-4.855-13.366c-.355-2.089,1.659-5.85,3.59-6.768,3.11-1.479,5,1.662,6.139,4.369.985,2.346,1.581,4.853,2.476,7.242,1.763,4.708,4.341,5.677,8.515,2.954a32.777,32.777,0,0,0,13.04-16.4c.482-1.3.588-3.037,2.523-1.24Z" transform="translate(-277.296 -1598.286)" fill="#ff112d"/>
      <path id="Path_318" data-name="Path 318" d="M-114.2,1830.065l35.118-46.02c-1.589-1.968-3.762-3.605-4.381-5.7-.732-2.478-1.128-6.137.194-7.832,1.283-1.645,4.934-1.943,7.53-1.9a10.223,10.223,0,0,1,5.8,2.438c6.977,5.774,14.116,11.431,20.479,17.842,4.65,4.684,4.017,8.948-.389,13.944a9.362,9.362,0,0,1-.881.927c-9.772,8.406-21.643,11.109-33.79,13.06l-.524-1.039c3.309-2.023,6.717-3.906,9.905-6.105,4.556-3.142,9.014-6.436,13.386-9.83,1.863-1.446,3.445-3.294.806-5.573-2.124-1.834-3.76-2.491-6.512-.192-15.038,12.559-30.332,24.811-45.539,37.169Z" transform="translate(114.196 -1721.752)" fill="#ff112d"/>
      <path id="Path_319" data-name="Path 319" d="M325.217,1502.9c.081,5.8-4.106,10.271-9.636,10.29a10,10,0,0,1-9.865-10.185,10.277,10.277,0,0,1,9.547-10.187C320.606,1492.627,325.137,1497.216,325.217,1502.9Z" transform="translate(-240.14 -1489.031)" fill="#ff112d"/>
    </g>
  </g>
</svg>
