<svg id="Group_940" data-name="Group 940" xmlns="http://www.w3.org/2000/svg" width="38" height="38" viewBox="0 0 38 38">
  <path id="Path_1407" data-name="Path 1407" d="M291.546,188.675a3.346,3.346,0,1,0,3.638,3.637A3.353,3.353,0,0,0,291.546,188.675Z" transform="translate(-267.093 -174.659)" fill="#fff"/>
  <path id="Path_1408" data-name="Path 1408" d="M135.72,188.675a3.346,3.346,0,1,0,3.638,3.637A3.353,3.353,0,0,0,135.72,188.675Z" transform="translate(-122.832 -174.659)" fill="#fff"/>
  <path id="Path_1409" data-name="Path 1409" d="M19,0A19,19,0,1,0,38,19,19,19,0,0,0,19,0ZM32.9,27.45l-.221.171a21.515,21.515,0,0,1-9.741,3.923l-.334.042a.236.236,0,0,1-.25-.151L20.68,26.94a.236.236,0,0,1,.184-.315l.515-.081a12.551,12.551,0,0,0,6.489-2.969.056.056,0,0,0-.056-.095c-.175.065-.367.14-.565.218a12.133,12.133,0,0,1-1.317.464,30.081,30.081,0,0,1-6.949.826v-.041h0v.041a30.1,30.1,0,0,1-6.954-.826A12.135,12.135,0,0,1,10.7,23.7c-.2-.077-.391-.153-.566-.218a.056.056,0,0,0-.056.095,12.548,12.548,0,0,0,6.489,2.98l.515.081a.236.236,0,0,1,.184.316l-1.678,4.483a.236.236,0,0,1-.25.151l-.333-.042a21.515,21.515,0,0,1-9.742-3.923l-.221-.171-.031-.277c-.595-5.287-.037-13.727,1.925-18.7l.094-.238a.028.028,0,0,1,.015-.016l.233-.106A20.12,20.12,0,0,1,14.3,6.934H17.21a.029.029,0,0,1,.012.054l-5.73,2.647a.028.028,0,0,0,.019.053,29.116,29.116,0,0,1,14.952.006.028.028,0,0,0,.02-.053L20.947,6.988a.029.029,0,0,1,.012-.054h2.695a20.12,20.12,0,0,1,7.014,1.181l.233.106a.029.029,0,0,1,.015.016l.094.238c1.962,4.972,2.52,13.412,1.925,18.7Z" fill="#fff"/>
</svg>
