<svg xmlns="http://www.w3.org/2000/svg" width="108.929" height="108.922" viewBox="0 0 108.929 108.922">
  <g id="Group_1210" data-name="Group 1210" transform="translate(0 0)">
    <path id="Path_2275" data-name="Path 2275" d="M73.4,123.878H57.443V107.921A15.974,15.974,0,0,0,41.487,91.965,3.191,3.191,0,0,0,38.3,95.156a38.842,38.842,0,0,1-13.813,29.738L19.775,128.9a5.752,5.752,0,0,1-3.691,1.358H3.191A3.191,3.191,0,0,0,0,133.452v38.3a3.191,3.191,0,0,0,3.191,3.191H9.766a47.147,47.147,0,0,1,17,3.177,49.238,49.238,0,0,0,17.467,3.206h16.4a9.574,9.574,0,0,0,8.9-13.1,9.576,9.576,0,0,0,6.383-12.765,9.57,9.57,0,0,0,4.612-15.621A9.57,9.57,0,0,0,73.4,123.878Zm0,12.765H60.635a3.191,3.191,0,1,0,0,6.383H73.4a3.191,3.191,0,1,1,0,6.383H60.635a3.191,3.191,0,1,0,0,6.383h6.383a3.191,3.191,0,0,1,0,6.383H60.635a3.191,3.191,0,1,0,0,6.383,3.191,3.191,0,0,1,0,6.383h-16.4a42.856,42.856,0,0,1-15.194-2.787,53.482,53.482,0,0,0-19.272-3.6H6.383V136.643h9.7a12.16,12.16,0,0,0,7.813-2.867l4.714-4.013a45.2,45.2,0,0,0,15.918-30.92,9.591,9.591,0,0,1,6.531,9.079v19.148a3.191,3.191,0,0,0,3.191,3.191H73.4a3.191,3.191,0,1,1,0,6.383Z" transform="translate(0 -72.399)" fill="#ff112d"/>
    <path id="Path_2276" data-name="Path 2276" d="M294.413,32.566c4.8,0,10.4-2.509,15.087-7.2,7.593-7.592,9.575-17.5,4.514-22.566C311.42.211,307.365-.635,302.891.483a25.463,25.463,0,0,0-11.444,6.835,25.483,25.483,0,0,0-6.832,11.342c-1.138,4.487-.314,8.408,2.319,11.041A10.3,10.3,0,0,0,294.413,32.566ZM295.96,11.83c5.19-5.189,11.415-6.638,13.54-4.512s.653,8.373-4.513,13.54c-5.114,5.114-11.367,6.5-13.54,4.331C289.356,23.1,290.694,17.1,295.96,11.83Z" transform="translate(-223.67 0)" fill="#ff112d"/>
    <path id="Path_2277" data-name="Path 2277" d="M422.944,83.867a3.192,3.192,0,0,0-4.514,4.514,12.766,12.766,0,0,1-9.239,21.791,3.191,3.191,0,0,0,0,6.383,19.149,19.149,0,0,0,13.753-32.688Z" transform="translate(-319.622 -65.288)" fill="#ff112d"/>
    <path id="Path_2278" data-name="Path 2278" d="M332.576,125.58a3.191,3.191,0,1,0-5.709-2.854,19.794,19.794,0,0,1-17.8,11h-4.876a3.191,3.191,0,0,0,0,6.383h4.876a26.287,26.287,0,0,0,23.509-14.53Z" transform="translate(-236.961 -95.226)" fill="#ff112d"/>
  </g>
</svg>
