<svg xmlns="http://www.w3.org/2000/svg" width="38" height="38" viewBox="0 0 38 38">
  <path id="Path_1737" data-name="Path 1737" d="M-121.422-60.977a19,19,0,0,0-19,19,19,19,0,0,0,19,19,19,19,0,0,0,19-19A19,19,0,0,0-121.422-60.977Zm-5.521,28.723h-4.627V-46.176h4.627Zm-2.314-15.822h-.03a2.4,2.4,0,0,1-2.557-2.4,2.415,2.415,0,0,1,2.618-2.406,2.4,2.4,0,0,1,2.587,2.406A2.414,2.414,0,0,1-129.257-48.077Zm19,15.822h-4.627V-39.7c0-1.872-.67-3.148-2.344-3.148a2.533,2.533,0,0,0-2.374,1.692,3.167,3.167,0,0,0-.152,1.129v7.774h-4.627s.061-12.615,0-13.922h4.627V-44.2a4.594,4.594,0,0,1,4.17-2.3c3.044,0,5.327,1.99,5.327,6.266Z" transform="translate(140.422 60.977)" fill="#fff"/>
</svg>
