<svg xmlns="http://www.w3.org/2000/svg" width="607.908" height="489" viewBox="0 0 607.908 489">
  <g id="Group_1186" data-name="Group 1186" transform="translate(-48.783 -99.104)" opacity="0.28">
    <g id="OBJECTS" transform="translate(48.783 99.104)">
      <path id="Path_2023" data-name="Path 2023" d="M179.1,266.492l-9.092-8.28-31.692,38.463-31.628,38.518,9.878,7.323c15.05,8.953,42.871,10.232,61.857-12.85S190.786,279.531,179.1,266.492Z" transform="translate(-18.15 -14.931)" fill="#f6c31f"/>
      <path id="Path_2024" data-name="Path 2024" d="M181.491,331c-18.754,22.8-51.174,24.786-70.875,5.907-18.186-17.428-18.784-46.59-2.561-66.311s44.952-24.763,65.561-10.278C195.939,276.011,200.247,308.2,181.491,331Z" transform="translate(-23.59 -18.219)" fill="#fff068"/>
      <path id="Path_2025" data-name="Path 2025" d="M175.6,325.828c-16.689,20.29-45.567,22.179-63.218,5.433-16.382-15.541-17-41.708-2.428-59.429s40.371-22.157,58.781-9.081C188.571,276.84,192.289,305.539,175.6,325.828Z" transform="translate(-21.936 -16.529)" fill="#f6c31f"/>
      <path id="Path_2026" data-name="Path 2026" d="M155.794,262.761a41.753,41.753,0,0,0-31.8-6.887,41.47,41.47,0,0,1,30.521,7.084c19.758,14.078,23.426,42.74,6.761,63A45.1,45.1,0,0,1,130.3,342.441a45.14,45.14,0,0,0,32.359-16.6C179.347,305.55,175.63,276.852,155.794,262.761Z" transform="translate(-8.994 -16.54)" fill="#f6c31f" opacity="0.4" style="mix-blend-mode: multiply;isolation: isolate"/>
      <path id="Path_2027" data-name="Path 2027" d="M170.542,321.4c-14.923,18.144-40.8,20.085-56.833,5.226-15.069-13.962-15.826-37.816-2.494-54.025s36.885-20.067,53.492-7.975C182.381,277.5,185.466,303.258,170.542,321.4Z" transform="translate(-20.747 -15.285)" fill="#fff068"/>
      <path id="Path_2028" data-name="Path 2028" d="M153.043,264.635a37.7,37.7,0,0,0-29.217-6.445,37.307,37.307,0,0,1,27.18,6.749c17.572,12.852,20.592,38.565,5.7,56.669A40.8,40.8,0,0,1,129.5,336.434a40.839,40.839,0,0,0,29.377-15.024C173.8,303.266,170.717,277.5,153.043,264.635Z" transform="translate(-9.083 -15.293)" fill="#ffd138" opacity="0.4" style="mix-blend-mode: multiply;isolation: isolate"/>
      <path id="Path_2029" data-name="Path 2029" d="M319.243,113.042l-7.508,9.738,40.932,28.434,40.978,28.367,6.489-10.445c7.69-15.734,6.685-43.564-17.876-60.6S331.282,100.325,319.243,113.042Z" transform="translate(90.328 -99.104)" fill="#f6c31f"/>
      <path id="Path_2030" data-name="Path 2030" d="M383.038,110.137c24.26,16.822,28.894,48.972,11.693,70.154-15.879,19.553-44.894,22.536-65.879,7.985s-28.361-42.772-15.615-64.5C327.045,100.242,358.779,93.313,383.038,110.137Z" transform="translate(87.801 -98.179)" fill="#fff068"/>
      <path id="Path_2031" data-name="Path 2031" d="M378.2,112.744c21.588,14.971,25.836,43.6,10.593,62.561-14.147,17.6-40.175,20.364-59.03,7.289s-25.39-38.42-13.867-57.839C328.318,103.83,356.616,97.774,378.2,112.744Z" transform="translate(89.507 -96.277)" fill="#f6c31f"/>
      <path id="Path_2032" data-name="Path 2032" d="M315.91,124.755a41.751,41.751,0,0,0-4.258,32.257,41.469,41.469,0,0,1,4.561-31c12.411-20.845,40.675-26.848,62.232-11.9a45.1,45.1,0,0,1,18.966,29.521,45.137,45.137,0,0,0-19.2-30.89C356.625,97.774,328.327,103.83,315.91,124.755Z" transform="translate(89.499 -96.277)" fill="#f6c31f" opacity="0.4" style="mix-blend-mode: multiply;isolation: isolate"/>
      <path id="Path_2033" data-name="Path 2033" d="M374.08,115.159c19.3,13.388,23.361,39.015,9.865,56.215-12.68,16.162-36.394,18.87-53.64,6.91s-23.021-35.116-12.33-52.658C329.351,106.957,354.775,101.772,374.08,115.159Z" transform="translate(90.777 -94.576)" fill="#fff068"/>
      <path id="Path_2034" data-name="Path 2034" d="M317.981,125.625a37.707,37.707,0,0,0-4.031,29.648,37.3,37.3,0,0,1,4.5-27.642c11.368-18.566,36.749-23.682,56.012-10.324a40.807,40.807,0,0,1,17,25.9,40.846,40.846,0,0,0-17.381-28.049C354.781,101.772,329.357,106.957,317.981,125.625Z" transform="translate(90.771 -94.576)" fill="#ffd138" opacity="0.4" style="mix-blend-mode: multiply;isolation: isolate"/>
      <path id="Path_2035" data-name="Path 2035" d="M304.99,216.85l-6.972,10.694,44.694,26.079,44.738,26,5.861-11.342c6.67-16.914,3.352-45.639-23.465-61.255S316.409,202.7,304.99,216.85Z" transform="translate(83.071 -45.999)" fill="#f6c31f"/>
      <path id="Path_2036" data-name="Path 2036" d="M370.2,208.774c26.487,15.425,33.917,48.321,17.847,71.654-14.833,21.54-44.62,27-67.533,13.66s-32.857-41.948-21.443-65.478C311.434,203.12,343.712,193.348,370.2,208.774Z" transform="translate(81.115 -44.99)" fill="#fff068"/>
      <path id="Path_2037" data-name="Path 2037" d="M365.544,211.722c23.57,13.728,30.312,43.007,16.087,63.885-13.2,19.374-39.914,24.368-60.5,12.379S291.7,250.3,302.04,229.256C313.179,206.58,341.972,197.995,365.544,211.722Z" transform="translate(82.904 -43.015)" fill="#f6c31f"/>
      <path id="Path_2038" data-name="Path 2038" d="M302.046,229.256a43.347,43.347,0,0,0-1.764,33.735,43.045,43.045,0,0,1,2.18-32.457c11.139-22.593,39.9-31.12,63.44-17.414a46.824,46.824,0,0,1,22.047,29,46.864,46.864,0,0,0-22.4-30.4C341.978,197.995,313.185,206.58,302.046,229.256Z" transform="translate(82.898 -43.015)" fill="#f6c31f" opacity="0.4" style="mix-blend-mode: multiply;isolation: isolate"/>
      <path id="Path_2039" data-name="Path 2039" d="M361.581,214.441c21.076,12.275,27.374,38.467,14.815,57.376-11.8,17.766-36.123,22.51-54.954,11.546s-26.7-34.461-17.076-53.495C314.613,209.614,340.5,202.166,361.581,214.441Z" transform="translate(84.249 -41.239)" fill="#fff068"/>
      <path id="Path_2040" data-name="Path 2040" d="M304.37,229.868a39.163,39.163,0,0,0-1.743,31.018,38.731,38.731,0,0,1,2.395-28.98c10.246-20.147,36.1-27.523,57.129-15.274a42.37,42.37,0,0,1,19.72,25.416,42.4,42.4,0,0,0-20.286-27.607C340.507,202.166,314.618,209.614,304.37,229.868Z" transform="translate(84.245 -41.239)" fill="#ffd138" opacity="0.4" style="mix-blend-mode: multiply;isolation: isolate"/>
      <path id="Path_2041" data-name="Path 2041" d="M305.387,237.218l4.2-14.168L248.5,208.33l-61.111-14.622L184.7,208.24c-1.612,21.006,12.589,51.973,49.229,60.772S297.284,256.666,305.387,237.218Z" transform="translate(23.059 -49.056)" fill="#f6c31f"/>
      <path id="Path_2042" data-name="Path 2042" d="M234.4,279.7c-36.194-8.691-56.649-42.989-46.484-74.174,9.384-28.787,41.856-44.455,73.163-36.937s53.125,36.221,48.415,66.131C304.4,267.124,270.6,288.394,234.4,279.7Z" transform="translate(23.448 -63.333)" fill="#fff068"/>
      <path id="Path_2043" data-name="Path 2043" d="M233.616,271.364c-32.209-7.734-50.564-38.22-41.646-66.074,8.277-25.848,37.365-40,65.495-33.247s47.62,32.572,43.258,59.36C296.02,260.269,265.823,279.1,233.616,271.364Z" transform="translate(25.777 -61.405)" fill="#f6c31f"/>
      <path id="Path_2044" data-name="Path 2044" d="M298.29,223.5c2.261-13.891-1.872-27.461-10.128-38.189a49.019,49.019,0,0,1,9.185,36.9c-4.731,28.775-34.914,47.53-67.074,39.807a58.276,58.276,0,0,1-35.955-25.258,58.234,58.234,0,0,0,36.867,26.7C263.391,271.191,293.588,252.364,298.29,223.5Z" transform="translate(28.209 -53.5)" fill="#f6c31f" opacity="0.4" style="mix-blend-mode: multiply;isolation: isolate"/>
      <path id="Path_2045" data-name="Path 2045" d="M233.083,264.173c-28.8-6.916-45.53-34.1-37.827-59.224,7.238-23.605,33.651-36.714,59.38-30.535s43.31,29.848,39.039,54.168C289.133,254.462,261.882,271.089,233.083,264.173Z" transform="translate(27.715 -60.069)" fill="#fff068"/>
      <path id="Path_2046" data-name="Path 2046" d="M291.5,221.474c2.238-12.751-1.518-25.275-9.171-35.15a44.032,44.032,0,0,1,7.685,33.087c-4.581,25.76-31.813,42.293-60.551,35.391a52.8,52.8,0,0,1-31.972-22,52.693,52.693,0,0,0,33.417,24.267C259.708,263.982,286.959,247.355,291.5,221.474Z" transform="translate(29.889 -52.962)" fill="#ffd138" opacity="0.4" style="mix-blend-mode: multiply;isolation: isolate"/>
      <path id="Path_2047" data-name="Path 2047" d="M304.133,440.43l7.887-5.639-25.686-32.243-25.738-32.2-7.248,6.439c-9.3,10.225-14.434,31.975.985,51.3S292.1,447.23,304.133,440.43Z" transform="translate(54.761 44.393)" fill="#f6c31f"/>
      <path id="Path_2048" data-name="Path 2048" d="M255.528,428.95c-15.231-19.085-11.994-45.085,5.838-57.129,16.46-11.118,39.584-6.138,52.758,10.373s12.9,40.162-1.595,53.744C296.827,450.652,270.759,448.037,255.528,428.95Z" transform="translate(55.455 42.018)" fill="#fff068"/>
      <path id="Path_2049" data-name="Path 2049" d="M257.384,424.874c-13.553-16.986-10.766-40.165,5.076-50.987,14.7-10.044,35.464-5.645,47.3,9.19s11.52,36.055-1.537,48.163C294.157,444.285,270.937,441.858,257.384,424.874Z" transform="translate(56.981 43.398)" fill="#f6c31f"/>
      <path id="Path_2050" data-name="Path 2050" d="M308.2,421.647a32.443,32.443,0,0,0,10.151-23.85,32.166,32.166,0,0,1-10.118,22.8c-14.047,12.986-37.231,10.527-50.764-6.433a38.232,38.232,0,0,1-8.43-27.567,38.2,38.2,0,0,0,8.318,28.683C270.915,432.266,294.135,434.692,308.2,421.647Z" transform="translate(57.004 52.99)" fill="#f6c31f" opacity="0.4" style="mix-blend-mode: multiply;isolation: isolate"/>
      <path id="Path_2051" data-name="Path 2051" d="M259.113,421.389c-12.119-15.188-9.821-36,4.294-45.9,13.261-9.3,32.215-5.439,43.042,8.13s10.387,32.908-1.625,43.775C292.04,438.956,271.233,436.578,259.113,421.389Z" transform="translate(58.339 44.418)" fill="#fff068"/>
      <path id="Path_2052" data-name="Path 2052" d="M304.807,418.754a29.294,29.294,0,0,0,9.42-21.891,28.886,28.886,0,0,1-9.359,20.223c-12.754,11.488-33.513,9.069-45.608-6.087a34.641,34.641,0,0,1-7.679-24.278,34.567,34.567,0,0,0,7.515,26.03C271.217,427.941,292.023,430.318,304.807,418.754Z" transform="translate(58.356 53.055)" fill="#ffd138" opacity="0.4" style="mix-blend-mode: multiply;isolation: isolate"/>
      <path id="Path_2053" data-name="Path 2053" d="M211.211,126l-11.586-15.957-38.1,36.261-38.1,36.26,15.364,12.362c7.742,4.072,28.633,3.627,51.632-18.261S214.895,133.935,211.211,126Z" transform="translate(-9.298 -93.317)" fill="#f6c31f"/>
      <path id="Path_2054" data-name="Path 2054" d="M186.408,172.629c-24.57,23.382-51.7,24.987-62.385,10.517-9.847-13.333-1.442-38.469,18.093-57.059S187.172,100.345,200,110.84C213.927,122.229,210.98,149.245,186.408,172.629Z" transform="translate(-11.167 -95.467)" fill="#fff068"/>
      <path id="Path_2055" data-name="Path 2055" d="M180.145,166.2c-19.589,18.642-43.616,22.91-52.969,10.457-8.667-11.538-1.411-33.445,15.647-49.677s39.3-22.394,50.391-13.167C205.188,123.767,199.735,147.553,180.145,166.2Z" transform="translate(-9.253 -93.603)" fill="#f6c31f"/>
      <path id="Path_2056" data-name="Path 2056" d="M184.423,113.816c-5.755-4.787-14.471-5.43-23.792-2.769,8.907-2.323,17.174-1.557,22.692,3.057,11.913,9.956,6.43,33.714-13.13,52.328-9.6,9.131-20.431,14.862-30.073,16.761,9.934-1.671,21.255-7.494,31.234-16.991C190.945,147.56,196.4,123.774,184.423,113.816Z" transform="translate(-0.462 -93.61)" fill="#f6c31f" opacity="0.4" style="mix-blend-mode: multiply;isolation: isolate"/>
      <path id="Path_2057" data-name="Path 2057" d="M176.5,162.472c-17.324,16.488-38.692,20.483-47.206,9.592-7.989-10.22-1.6-29.963,13.839-44.654s35.472-20.1,45.284-11.612C198.879,124.841,193.829,145.986,176.5,162.472Z" transform="translate(-8.014 -92.405)" fill="#fff068"/>
      <path id="Path_2058" data-name="Path 2058" d="M180.593,115.8c-5.145-4.449-13.075-5.075-21.588-2.619,7.856-1.919,15.079-1.1,19.862,3.063,10.378,9.038,5.29,30.146-12,46.6C158.515,170.8,149.1,175.87,140.644,177.7c8.911-1.477,19.081-6.7,28.032-15.219C186,145.991,191.05,124.846,180.593,115.8Z" transform="translate(-0.185 -92.409)" fill="#ffd138" opacity="0.4" style="mix-blend-mode: multiply;isolation: isolate"/>
      <path id="Path_2059" data-name="Path 2059" d="M435.254,297.846l-6.563-19.371-48.9,24.186-48.9,24.188L342.3,343.82c6.414,6.417,27.243,12.405,56.759-2.194S436.46,306.837,435.254,297.846Z" transform="translate(100.462 -4.211)" fill="#f6c31f"/>
      <path id="Path_2060" data-name="Path 2060" d="M395.805,338.266c-31.533,15.6-58.9,8.838-65.027-8.783-5.648-16.238,10.413-38.547,35.483-50.948s52.548-11.627,62.027,2.717C438.573,296.818,427.339,322.67,395.805,338.266Z" transform="translate(99.804 -8.788)" fill="#fff068"/>
      <path id="Path_2061" data-name="Path 2061" d="M390.64,330.786c-25.14,12.434-50.25,9.268-55.683-5.946-5.032-14.095,8.9-33.559,30.787-44.386s45.815-10.086,53.963,2.468C428.5,296.471,415.78,318.352,390.64,330.786Z" transform="translate(102.069 -7.172)" fill="#f6c31f"/>
      <path id="Path_2062" data-name="Path 2062" d="M412.6,282.928c-4.228-6.512-12.662-9.83-22.712-10.064,9.537.44,17.489,3.745,21.535,10.011,8.735,13.527-4.008,35.373-29.11,47.789-12.315,6.09-24.812,8.431-34.945,7.345,10.353,1.4,23.358-.881,36.165-7.216C408.671,318.359,421.391,296.478,412.6,282.928Z" transform="translate(109.178 -7.179)" fill="#f6c31f" opacity="0.4" style="mix-blend-mode: multiply;isolation: isolate"/>
      <path id="Path_2063" data-name="Path 2063" d="M387.522,326.548c-22.234,11-44.628,8.379-49.709-5.029-4.766-12.582,7.641-30.169,27.452-39.969s41.319-8.986,48.426,2.439C421.265,296.163,409.756,315.551,387.522,326.548Z" transform="translate(103.584 -6.174)" fill="#fff068"/>
      <path id="Path_2064" data-name="Path 2064" d="M407.366,283.994c-3.728-5.992-11.388-9.052-20.576-9.24,8.371.517,15.274,3.547,18.729,9.147,7.5,12.145-4.04,31.487-26.224,42.46-10.723,5.3-21.613,7.433-30.546,6.639,9.28,1.278,20.96-.765,32.448-6.446C403.43,315.556,414.939,296.168,407.366,283.994Z" transform="translate(109.91 -6.179)" fill="#ffd138" opacity="0.4" style="mix-blend-mode: multiply;isolation: isolate"/>
      <path id="Path_2065" data-name="Path 2065" d="M300.515,293.541c8.185-8.049,13.618-14.538,13.39-19.113l-6.87-11.156L257.31,296.1l0,0-49.726,32.83,7.561,10.7c4.118,2.008,12.219-.439,22.835-4.8,7.526-3.095,17.156-7.575,32.994-18.032S294.714,299.246,300.515,293.541Z" transform="translate(35.226 -12.254)" fill="#f6c31f"/>
      <path id="Path_2066" data-name="Path 2066" d="M265.367,308.683c-33.556,22.156-55.9,27.761-58.137,19.783-2.058-7.352,17.058-26.547,42.555-43.382s50.66-26.873,56.611-22.093C312.855,268.179,298.921,286.527,265.367,308.683Z" transform="translate(34.96 -13.033)" fill="#fff068"/>
      <path id="Path_2067" data-name="Path 2067" d="M261.707,304.88c-25.838,17.059-48.548,24.94-50.576,18.11-1.879-6.327,14.933-23.166,37.431-38.021s44.587-23.7,49.668-19.486C303.714,270.031,287.544,287.82,261.707,304.88Z" transform="translate(37.029 -11.64)" fill="#f6c31f"/>
      <path id="Path_2068" data-name="Path 2068" d="M292.807,265.484c-2.636-2.185-9.816-.862-19.111,2.9,8.777-3.44,15.512-4.586,18.027-2.474,5.434,4.558-10.749,22.336-36.547,39.37-12.656,8.356-24.735,14.579-33.939,17.873,9.344-3.194,21.885-9.579,35.047-18.27C282.122,287.822,298.291,270.033,292.807,265.484Z" transform="translate(42.451 -11.642)" fill="#f6c31f" opacity="0.4" style="mix-blend-mode: multiply;isolation: isolate"/>
      <path id="Path_2069" data-name="Path 2069" d="M259.1,302.375c-22.611,14.928-42.7,22-44.733,16.16-1.913-5.485,12.954-20.472,33.1-33.775s39.772-21.089,44.062-17.176C296.107,271.757,281.711,287.446,259.1,302.375Z" transform="translate(38.729 -10.508)" fill="#fff068"/>
      <path id="Path_2070" data-name="Path 2070" d="M286.763,267.586c-2.251-2.052-8.7-.888-17.11,2.529,7.6-2.913,13.353-3.8,15.431-1.873,4.508,4.182-9.9,19.856-32.464,34.752-10.907,7.2-21.341,12.618-29.4,15.587,8.284-2.82,19.429-8.492,31.113-16.2C276.942,287.447,291.337,271.758,286.763,267.586Z" transform="translate(43.499 -10.509)" fill="#ffd138" opacity="0.4" style="mix-blend-mode: multiply;isolation: isolate"/>
      <path id="Path_2071" data-name="Path 2071" d="M430.248,220.622c-6.93-7.708-12.563-12.87-16.7-12.848l-10.339,5.746L430.817,259.7l0,0,27.608,46.175,9.956-6.387c1.977-3.633.1-11.04-3.413-20.792-2.488-6.913-6.141-15.78-14.934-30.487S435.161,226.085,430.248,220.622Z" transform="translate(138.722 -41.615)" fill="#f6c31f"/>
      <path id="Path_2072" data-name="Path 2072" d="M442.561,251.324c18.63,31.16,22.786,51.545,15.5,53.238-6.714,1.56-23.258-16.459-37.414-40.136s-22.2-46.779-17.644-51.955C407.94,206.853,423.929,220.162,442.561,251.324Z" transform="translate(137.936 -39.793)" fill="#fff068"/>
      <path id="Path_2073" data-name="Path 2073" d="M439.141,250.571c14.345,23.994,20.538,44.8,14.295,46.351-5.783,1.439-20.293-14.405-32.784-35.3s-19.579-41.174-15.573-45.587C409.4,211.274,424.8,226.577,439.141,250.571Z" transform="translate(139.117 -37.702)" fill="#f6c31f"/>
      <path id="Path_2074" data-name="Path 2074" d="M405.081,216.037c-2.078,2.289-1.174,8.819,1.844,17.356-2.751-8.056-3.511-14.177-1.5-16.362,4.33-4.717,19.712,10.6,34.036,34.555,7.027,11.754,12.153,22.9,14.752,31.335-2.5-8.558-7.758-20.128-15.066-32.35C424.8,226.577,409.4,211.274,405.081,216.037Z" transform="translate(139.116 -37.702)" fill="#f6c31f" opacity="0.4" style="mix-blend-mode: multiply;isolation: isolate"/>
      <path id="Path_2075" data-name="Path 2075" d="M436.91,249.664c12.553,21,18.125,39.4,12.772,41-5.024,1.5-17.943-12.511-29.13-31.221s-17.417-36.726-13.714-40.438C410.785,215.048,424.355,228.666,436.91,249.664Z" transform="translate(140.075 -36.034)" fill="#fff068"/>
      <path id="Path_2076" data-name="Path 2076" d="M406.839,219.005c-1.942,1.947-1.153,7.809,1.59,15.537-2.321-6.972-2.89-12.2-1.067-14,3.954-3.9,17.51,9.734,30.036,30.685,6.055,10.128,10.521,19.758,12.875,27.15-2.209-7.587-6.876-17.868-13.362-28.717C424.356,228.666,410.786,215.048,406.839,219.005Z" transform="translate(140.074 -36.034)" fill="#ffd138" opacity="0.4" style="mix-blend-mode: multiply;isolation: isolate"/>
      <path id="Path_2077" data-name="Path 2077" d="M139.471,225.2c8.075-7.526,13.465-13.624,13.362-18.027l-6.318-10.9L97.873,226.555l0,0L49.227,256.837l6.992,10.48c3.907,2.035,11.757-.109,22.075-4.032,7.313-2.781,16.685-6.841,32.177-16.485S133.748,230.535,139.471,225.2Z" transform="translate(-48.548 -47.699)" fill="#f6c31f"/>
      <path id="Path_2078" data-name="Path 2078" d="M105.293,238.9C72.468,259.331,50.843,264.146,48.9,256.419c-1.789-7.119,17.079-25.081,42.021-40.607s49.388-24.53,54.987-19.783C151.984,201.182,138.118,218.462,105.293,238.9Z" transform="translate(-48.783 -48.499)" fill="#fff068"/>
      <path id="Path_2079" data-name="Path 2079" d="M101.8,235.249c-25.275,15.734-47.31,22.726-49.084,16.108-1.644-6.13,14.951-21.885,36.958-35.585s43.469-21.636,48.244-17.455C143.078,202.829,127.077,219.515,101.8,235.249Z" transform="translate(-46.76 -47.208)" fill="#f6c31f"/>
      <path id="Path_2080" data-name="Path 2080" d="M132.72,198.318c-2.477-2.168-9.414-1.083-18.446,2.3,8.526-3.083,15.029-4.009,17.394-1.914,5.105,4.521-10.907,21.194-36.143,36.9-12.381,7.708-24.153,13.379-33.084,16.309,9.066-2.83,21.284-8.647,34.16-16.662C121.875,219.517,137.876,202.83,132.72,198.318Z" transform="translate(-41.558 -47.21)" fill="#f6c31f" opacity="0.4" style="mix-blend-mode: multiply;isolation: isolate"/>
      <path id="Path_2081" data-name="Path 2081" d="M99.3,232.858C77.184,246.629,57.7,252.913,55.887,247.244c-1.7-5.321,12.978-19.345,32.689-31.616s38.773-19.249,42.8-15.378C135.663,204.377,121.422,219.088,99.3,232.858Z" transform="translate(-45.096 -46.161)" fill="#fff068"/>
      <path id="Path_2082" data-name="Path 2082" d="M126.8,200.251c-2.112-2.031-8.338-1.078-16.514,1.991,7.381-2.605,12.934-3.31,14.882-1.4,4.226,4.136-10.03,18.832-32.1,32.572C82.4,240.051,72.229,244.991,64.4,247.638c8.037-2.5,18.9-7.664,30.324-14.778C116.846,219.089,131.087,204.378,126.8,200.251Z" transform="translate(-40.52 -46.162)" fill="#ffd138" opacity="0.4" style="mix-blend-mode: multiply;isolation: isolate"/>
      <path id="Path_2083" data-name="Path 2083" d="M225.913,405.182c8.8,2.714,15.456,4.079,18.6,2.174l5.261-9.1-42.131-22.611,0,0-42.133-22.611-4.676,9.416c.15,3.673,4.965,8.462,12.093,14.3,5.052,4.136,11.885,9.229,25.3,16.431S219.673,403.258,225.913,405.182Z" transform="translate(10.494 35.232)" fill="#f6c31f"/>
      <path id="Path_2084" data-name="Path 2084" d="M200.78,386.424c-28.432-15.26-40.9-28.906-36.122-33.524,4.408-4.254,25.249,1.934,46.853,13.527s38.279,25.541,37.171,31.567C247.48,404.532,229.211,401.682,200.78,386.424Z" transform="translate(11.991 34.451)" fill="#fff068"/>
      <path id="Path_2085" data-name="Path 2085" d="M199.984,383.4c-21.891-11.749-36.11-24.786-32.059-28.821,3.754-3.737,22.052,1.722,41.114,11.951s33.724,22.462,32.685,27.656C240.6,399.794,221.876,395.152,199.984,383.4Z" transform="translate(13.882 35.429)" fill="#f6c31f"/>
      <path id="Path_2086" data-name="Path 2086" d="M239.477,389.965c.54-2.694-3.13-7.263-9.329-12.394,5.775,4.888,9.148,9.209,8.616,11.79-1.15,5.575-19.87.917-41.729-10.813-10.725-5.755-19.721-11.916-25.553-17.16,5.815,5.384,15.1,11.807,26.255,17.792C219.63,390.928,238.354,395.57,239.477,389.965Z" transform="translate(16.129 39.653)" fill="#f6c31f" opacity="0.4" style="mix-blend-mode: multiply;isolation: isolate"/>
      <path id="Path_2087" data-name="Path 2087" d="M199.093,381.45c-19.157-10.283-31.807-21.77-28.455-25.437,3.144-3.44,19.394,1.35,36.466,10.512s30.046,20.056,28.917,24.578C234.817,395.921,218.251,391.732,199.093,381.45Z" transform="translate(15.397 36.219)" fill="#fff068"/>
      <path id="Path_2088" data-name="Path 2088" d="M234.05,387.382c.592-2.372-2.685-6.482-8.3-11.122,4.953,4.257,7.772,7.983,7.2,10.185-1.237,4.778-17.8.57-36.912-9.688a122.273,122.273,0,0,1-22.211-14.827c5.148,4.777,13.4,10.488,23.3,15.8C216.281,388.011,232.846,392.2,234.05,387.382Z" transform="translate(17.368 39.94)" fill="#ffd138" opacity="0.4" style="mix-blend-mode: multiply;isolation: isolate"/>
    </g>
    <g id="A" transform="translate(72.773 123.99)">
      <g id="Group_1146" data-name="Group 1146" transform="translate(211.921 96.531)">
        <path id="Path_2089" data-name="Path 2089" d="M222.692,178.512c2.609,1.427,5.512,2.508,7.725,4.4,1.529,1.3,2.309,3.656,3.006,5.682a3.042,3.042,0,0,1-1.053,2.794,4.518,4.518,0,0,1-3.54-.327,17.39,17.39,0,0,1-3.477-3.39c-3.3-3.63-6.708-3.359-8.971,1.026a47.4,47.4,0,0,0-2.5,7.261c-.3.928-.483,1.895-.846,3.35-2.029-7.228-1.027-17.858,7.075-20.793Z" transform="translate(-198.275 -178.512)" fill="#f6c31f"/>
        <path id="Path_2090" data-name="Path 2090" d="M253.624,192.069a24.62,24.62,0,0,1-7.575,11.685c-4.209,3.528-8.417,3.271-11.405-1.278a21.51,21.51,0,0,1-2.933-8.072,4.9,4.9,0,0,1,2.168-4.089c1.879-.893,3.021,1,3.708,2.639.595,1.417.954,2.931,1.5,4.373,1.064,2.842,2.621,3.428,5.142,1.784a19.783,19.783,0,0,0,7.875-9.905c.292-.781.356-1.833,1.524-.749Z" transform="translate(-187.932 -173.496)" fill="#f6c31f"/>
        <path id="Path_2091" data-name="Path 2091" d="M203.071,234.134l21.208-27.793c-.959-1.188-2.272-2.177-2.645-3.442-.442-1.5-.68-3.708.118-4.731.774-.992,2.979-1.173,4.546-1.147a6.172,6.172,0,0,1,3.5,1.471c4.214,3.488,8.524,6.9,12.367,10.775,2.809,2.83,2.427,5.4-.234,8.422a5.764,5.764,0,0,1-.532.56c-5.9,5.076-13.072,6.709-20.406,7.887l-.317-.627c2-1.222,4.055-2.359,5.982-3.686,2.751-1.9,5.443-3.888,8.084-5.937,1.125-.873,2.081-1.989.486-3.365-1.281-1.107-2.269-1.5-3.931-.116-9.082,7.586-18.319,14.985-27.5,22.448Z" transform="translate(-203.071 -168.721)" fill="#f6c31f"/>
        <path id="Path_2092" data-name="Path 2092" d="M240.748,186.1a5.882,5.882,0,0,1-5.818,6.216,6.039,6.039,0,0,1-5.959-6.151,6.208,6.208,0,0,1,5.766-6.151A6.017,6.017,0,0,1,240.748,186.1Z" transform="translate(-189.369 -177.721)" fill="#f6c31f"/>
      </g>
      <g id="Group_1147" data-name="Group 1147" transform="translate(69.002 231.132)">
        <path id="Path_2093" data-name="Path 2093" d="M131.183,266.989c1.32,1.437,2.885,2.688,3.872,4.378.68,1.167.7,2.928.729,4.451.012.58-.739,1.687-1.19,1.751a2.581,2.581,0,0,1-2.1-.838,11.793,11.793,0,0,1-1.466-2.946c-1.313-3.083-3.45-3.485-5.693-.839a37.1,37.1,0,0,0-2.948,4.592c-.364.592-.665,1.228-1.171,2.173.168-5.352,2.858-12.535,8.391-13.167Z" transform="translate(-103.458 -266.542)" fill="#f6c31f"/>
        <path id="Path_2094" data-name="Path 2094" d="M146.747,281.517a18.067,18.067,0,0,1-6.919,6.777c-3.266,1.714-5.792.809-6.734-2.855a16.794,16.794,0,0,1-.219-6.093A3.669,3.669,0,0,1,135,276.892c1.326-.294,1.654,1.217,1.755,2.466.087,1.084.012,2.194.061,3.284.1,2.151.936,2.826,2.8,2.124a14.066,14.066,0,0,0,6.755-5.494c.332-.491.576-1.208,1.08-.255Z" transform="translate(-97.38 -261.086)" fill="#f6c31f"/>
        <path id="Path_2095" data-name="Path 2095" d="M109.6,301.285l18.413-15.567a8.872,8.872,0,0,1-.948-2.841c.023-1.112.307-2.682,1-3.252.67-.554,2.053-.3,3.009-.009a3.719,3.719,0,0,1,1.858,1.625c1.9,3.141,3.87,6.249,5.466,9.593,1.167,2.443.43,4.159-1.789,5.787a3.88,3.88,0,0,1-.434.3c-4.6,2.492-9.312,2.384-14.033,1.931l-.072-.488c1.463-.5,2.945-.933,4.382-1.518,2.055-.838,4.092-1.749,6.108-2.711.859-.41,1.662-1.017.956-2.245-.569-.989-1.1-1.434-2.385-.76-7.041,3.679-14.141,7.2-21.22,10.781Z" transform="translate(-109.601 -259.793)" fill="#f6c31f"/>
        <path id="Path_2096" data-name="Path 2096" d="M140.026,275.518c-.653,2.433-2.729,3.864-4.775,3.3-2.02-.561-3.124-2.949-2.446-5.286.651-2.243,2.8-3.722,4.731-3.26C139.533,270.743,140.668,273.133,140.026,275.518Z" transform="translate(-97.431 -264.616)" fill="#f6c31f"/>
      </g>
      <g id="Group_1148" data-name="Group 1148" transform="translate(0 137.206)">
        <path id="Path_2097" data-name="Path 2097" d="M97.221,205.749a17.55,17.55,0,0,1-1.413,3.517,17.918,17.918,0,0,1-2.9,2.991,4.579,4.579,0,0,1-1.815.907c-.39-.064-.546-.479-.352-.924a13.92,13.92,0,0,1,1.471-2.159c1.641-2.219.957-2.867-1.986-1.579-1.511.661-3.118,1.587-4.682,2.408-.595.312-1.2.667-2.113,1.18,3.965-3.4,10.41-7.523,13.394-6.916Z" transform="translate(-54.444 -205.114)" fill="#f6c31f"/>
        <path id="Path_2098" data-name="Path 2098" d="M93.041,218.277a29.671,29.671,0,0,1-8.081,3.084c-2.734.5-3.229-.54-1-3.064a34.735,34.735,0,0,1,4.326-3.949,6.424,6.424,0,0,1,2.752-1.187c.818.054-.128,1.083-.991,1.9-.746.711-1.587,1.41-2.358,2.119-1.518,1.4-1.625,1.985-.265,1.875a20.015,20.015,0,0,0,7.072-2.29c.508-.254,1.141-.67.677.034Z" transform="translate(-54.906 -200.857)" fill="#f6c31f"/>
        <path id="Path_2099" data-name="Path 2099" d="M64.786,223.107,84.5,216.483a13.193,13.193,0,0,1,1.63-2,11.394,11.394,0,0,1,2.816-1.905,1.134,1.134,0,0,1,1.379.544c.171.272-.014.85-.332,1.382-1.416,2.364-2.775,4.72-4.474,7.157a8.54,8.54,0,0,1-5.02,3.387c-.141.041-.284.086-.414.11-3.911.758-5.98-.173-7.806-1.327l.323-.326c1.031-.055,2.02-.06,3.1-.173,1.546-.162,3.138-.375,4.757-.624a2.709,2.709,0,0,0,2.066-1.266c.459-.739.541-1.121-.537-.924C76.1,221.6,70.3,222.56,64.473,223.561Z" transform="translate(-64.473 -201.199)" fill="#f6c31f"/>
        <path id="Path_2100" data-name="Path 2100" d="M93.543,213.114c-2.066,1.442-4.052,1.982-4.573,1.242s.717-2.463,2.725-3.839c1.927-1.321,3.979-1.878,4.527-1.228C96.787,209.959,95.569,211.7,93.543,213.114Z" transform="translate(-51.575 -203.049)" fill="#f6c31f"/>
      </g>
      <g id="Group_1149" data-name="Group 1149" transform="translate(170.94 371.47)">
        <path id="Path_2101" data-name="Path 2101" d="M176.553,362.366a17.5,17.5,0,0,1,3.738-.628,17.844,17.844,0,0,1,4.064.914,4.594,4.594,0,0,1,1.72,1.076c.148.365-.124.714-.6.781a13.936,13.936,0,0,1-2.61-.13c-2.749-.242-2.946.679-.312,2.52,1.352.945,2.979,1.83,4.5,2.737.578.346,1.193.673,2.11,1.188-4.972-1.609-11.849-4.959-12.887-7.821Z" transform="translate(-176.269 -356.518)" fill="#f6c31f"/>
        <path id="Path_2102" data-name="Path 2102" d="M188.576,359.379a29.722,29.722,0,0,1,6.845,5.286c1.856,2.072,1.225,3.038-2.093,2.45a34.654,34.654,0,0,1-5.627-1.631,6.433,6.433,0,0,1-2.448-1.729c-.381-.725.992-.454,2.142-.147,1,.266,2.031.619,3.038.907,1.985.566,2.54.352,1.737-.752a20.054,20.054,0,0,0-5.642-4.841c-.483-.3-1.167-.622-.326-.595Z" transform="translate(-171.55 -358.324)" fill="#f6c31f"/>
        <path id="Path_2103" data-name="Path 2103" d="M210.419,384.49l-15.931-13.362a13.176,13.176,0,0,1-2.554-.35,11.334,11.334,0,0,1-3.095-1.41,1.132,1.132,0,0,1-.254-1.46c.142-.287.731-.431,1.352-.437,2.755-.024,5.474-.095,8.44.084a8.535,8.535,0,0,1,5.508,2.517c.109.1.222.2.31.3,2.687,2.943,2.971,5.193,2.939,7.353l-.446-.106c-.584-.852-1.105-1.693-1.766-2.557-.945-1.234-1.956-2.482-3.012-3.734a2.714,2.714,0,0,0-2.157-1.1c-.87-.006-1.238.122-.509.939,3.986,4.462,7.833,8.908,11.728,13.359Z" transform="translate(-169.837 -353.504)" fill="#f6c31f"/>
        <path id="Path_2104" data-name="Path 2104" d="M183.617,359.674c2.307,1.011,3.8,2.425,3.443,3.255s-2.477.673-4.7-.321c-2.131-.956-3.676-2.417-3.408-3.223C179.232,358.551,181.354,358.683,183.617,359.674Z" transform="translate(-174.864 -358.053)" fill="#f6c31f"/>
      </g>
      <g id="Group_1150" data-name="Group 1150" transform="translate(528.044 173.98)">
        <path id="Path_2105" data-name="Path 2105" d="M410.366,230.853A17.509,17.509,0,0,1,414,231.922a17.946,17.946,0,0,1,3.257,2.6,4.614,4.614,0,0,1,1.076,1.72c-.026.394-.424.589-.885.439a13.881,13.881,0,0,1-2.29-1.257c-2.367-1.419-2.946-.676-1.382,2.13.8,1.44,1.881,2.95,2.849,4.427.368.563.778,1.127,1.379,1.989-3.771-3.618-8.491-9.636-8.174-12.663Z" transform="translate(-409.817 -228.271)" fill="#f6c31f"/>
        <path id="Path_2106" data-name="Path 2106" d="M423.091,233.549a29.674,29.674,0,0,1,3.849,7.745c.763,2.674-.228,3.268-2.954,1.289a34.767,34.767,0,0,1-4.349-3.925,6.441,6.441,0,0,1-1.446-2.625c-.024-.82,1.09.023,1.991.8.78.674,1.557,1.443,2.336,2.142,1.538,1.378,2.131,1.427,1.891.084a20.046,20.046,0,0,0-2.96-6.82c-.3-.482-.777-1.07-.032-.677Z" transform="translate(-405.388 -227.963)" fill="#f6c31f"/>
        <path id="Path_2107" data-name="Path 2107" d="M431.168,265.65l-8.492-18.98a13.179,13.179,0,0,1-2.144-1.43,11.369,11.369,0,0,1-2.168-2.621,1.133,1.133,0,0,1,.41-1.425c.254-.2.847-.069,1.407.2,2.489,1.182,4.965,2.307,7.555,3.764a8.537,8.537,0,0,1,3.855,4.67c.055.136.113.275.15.4,1.131,3.821.4,5.969-.569,7.9l-.356-.289c-.153-1.02-.254-2-.471-3.07-.309-1.524-.674-3.087-1.078-4.674a2.71,2.71,0,0,0-1.459-1.936c-.78-.385-1.168-.43-.869.622,1.636,5.755,3.154,11.434,4.712,17.14Z" transform="translate(-405.354 -222.85)" fill="#f6c31f"/>
        <path id="Path_2108" data-name="Path 2108" d="M417.843,231.645c1.635,1.916,2.362,3.842,1.676,4.431s-2.521-.476-4.084-2.341c-1.5-1.79-2.252-3.78-1.657-4.388C414.391,228.719,416.241,229.765,417.843,231.645Z" transform="translate(-407.83 -229.164)" fill="#f6c31f"/>
      </g>
      <g id="Group_1151" data-name="Group 1151" transform="translate(98.427 8.415)">
        <path id="Path_2109" data-name="Path 2109" d="M158.536,122.282a24.072,24.072,0,0,1,1.19,4.994,8.672,8.672,0,0,1-1.278,3.761,2.07,2.07,0,0,1-1.648.872,2.254,2.254,0,0,1-1.284-1.515,10.462,10.462,0,0,1,.083-2.894c.258-2.936-1.231-4.125-4.066-2.991a32.629,32.629,0,0,0-4.188,2.358c-.528.309-1.024.68-1.809,1.208,2.349-4.092,7.408-8.57,11.962-6.787Z" transform="translate(-120.015 -120.884)" fill="#f6c31f"/>
        <path id="Path_2110" data-name="Path 2110" d="M163.894,140.7a15.932,15.932,0,0,1-8.173,2.423c-3.242-.009-4.826-1.751-4.038-4.986a14.84,14.84,0,0,1,2.355-4.827,3.238,3.238,0,0,1,2.665-1.034c1.148.316.778,1.625.338,2.639-.381.878-.9,1.709-1.312,2.578-.816,1.713-.445,2.581,1.291,2.8a12.391,12.391,0,0,0,7.515-1.494c.46-.245.946-.7.942.246Z" transform="translate(-116.868 -114.875)" fill="#f6c31f"/>
        <path id="Path_2111" data-name="Path 2111" d="M128.866,138.423l20.726-4.535a7.757,7.757,0,0,1,.442-2.6c.477-.855,1.349-1.959,2.119-2.119.748-.154,1.714.613,2.336,1.229a3.261,3.261,0,0,1,.768,2.026c.17,3.223.413,6.449.266,9.7-.107,2.379-1.39,3.41-3.784,3.764a3.652,3.652,0,0,1-.46.05c-4.6.046-8.208-1.974-11.682-4.266l.147-.41c1.341.213,2.668.486,4.027.622,1.94.193,3.9.321,5.859.4.836.035,1.711-.107,1.671-1.352-.032-1-.257-1.566-1.535-1.572-6.985-.032-13.949-.211-20.922-.339Z" transform="translate(-128.845 -116.51)" fill="#f6c31f"/>
        <path id="Path_2112" data-name="Path 2112" d="M160.82,133.126c-1.515,1.622-3.719,1.882-5.069.6a3.634,3.634,0,0,1,.292-5.115c1.434-1.477,3.709-1.745,5.02-.59C162.415,129.211,162.3,131.536,160.82,133.126Z" transform="translate(-115.097 -117.488)" fill="#f6c31f"/>
      </g>
      <g id="Group_1152" data-name="Group 1152" transform="translate(236.121 238.164)">
        <path id="Path_2113" data-name="Path 2113" d="M261.833,271.6a29.261,29.261,0,0,1-2.6,3.821,40.2,40.2,0,0,1-4.209,3.709,10.439,10.439,0,0,1-2.378,1.378c-.443.044-.517-.32-.17-.807a28.2,28.2,0,0,1,2.3-2.509c2.52-2.613,1.885-3.061-1.924-1.006-1.956,1.057-4.093,2.4-6.154,3.624-.784.466-1.586.976-2.8,1.726,5.573-4.4,14.258-10.174,17.614-10.39Z" transform="translate(-205.669 -271.141)" fill="#f6c31f"/>
        <path id="Path_2114" data-name="Path 2114" d="M253.656,284.539a65.545,65.545,0,0,1-10.339,5.2c-3.356,1.232-3.664.347-.365-2.725,1.7-1.584,3.953-3.387,6.142-5.034a14.443,14.443,0,0,1,3.558-1.905c.95-.168-.439,1.095-1.671,2.13-1.069.9-2.245,1.809-3.339,2.711-2.161,1.778-2.44,2.379-.807,1.9a42.812,42.812,0,0,0,8.942-4.156c.665-.385,1.52-.963.789-.15Z" transform="translate(-207.4 -266.42)" fill="#f6c31f"/>
        <path id="Path_2115" data-name="Path 2115" d="M219.387,298.463l24.981-11.818a28.831,28.831,0,0,1,2.45-2.393,26.613,26.613,0,0,1,3.824-2.625c.895-.419,1.309-.131,1.482.159.13.219-.24.833-.757,1.44-2.294,2.694-4.518,5.365-7.167,8.208a19.605,19.605,0,0,1-6.812,4.671c-.176.078-.358.161-.515.22-4.812,1.8-7,1.451-8.85.818l.466-.407c1.229-.332,2.4-.605,3.7-1.009,1.865-.576,3.8-1.216,5.771-1.9a6.123,6.123,0,0,0,2.771-1.8c.735-.846.934-1.242-.388-.757-7.22,2.644-14.31,5.157-21.446,7.717Z" transform="translate(-218.898 -265.705)" fill="#f6c31f"/>
        <path id="Path_2116" data-name="Path 2116" d="M255.372,279.195c-2.815,1.969-5.3,3.035-5.717,2.453s1.5-2.6,4.225-4.491c2.619-1.813,5.187-2.913,5.661-2.427C260.03,275.231,258.134,277.265,255.372,279.195Z" transform="translate(-202.656 -269.303)" fill="#f6c31f"/>
      </g>
      <g id="Group_1153" data-name="Group 1153" transform="translate(427.837 248.822)">
        <path id="Path_2117" data-name="Path 2117" d="M373.392,279.059c1.177,1.786,2.656,3.451,3.425,5.4.531,1.344.232,3.1-.008,4.622-.09.579-1.109,1.477-1.61,1.419a3.252,3.252,0,0,1-2.139-1.4A12.536,12.536,0,0,1,372,285.771c-.875-3.419-3.127-4.4-6.043-2.373a33.935,33.935,0,0,0-4.035,3.769c-.5.489-.947,1.041-1.667,1.844,1.148-5.275,5.367-11.688,11.5-10.821Z" transform="translate(-335.832 -278.111)" fill="#f6c31f"/>
        <path id="Path_2118" data-name="Path 2118" d="M387.294,298.236a17.712,17.712,0,0,1-8.749,4.867c-3.862.821-6.448-.761-6.813-4.657a15.466,15.466,0,0,1,.859-6.115,3.514,3.514,0,0,1,2.755-1.865c1.494.066,1.581,1.656,1.465,2.925-.1,1.1-.381,2.183-.524,3.281-.281,2.165.509,3.061,2.665,2.867a14.235,14.235,0,0,0,8.341-3.635c.448-.4.844-1.046,1.22.037Z" transform="translate(-329.783 -271.576)" fill="#f6c31f"/>
        <path id="Path_2119" data-name="Path 2119" d="M344.281,306.281l22.839-10.5c-.209-1.079-.709-2.15-.52-3.079.225-1.1.818-2.584,1.67-2.965.827-.368,2.287.26,3.275.8a4.445,4.445,0,0,1,1.728,2.116c1.5,3.636,3.087,7.258,4.223,11.014.829,2.743-.281,4.249-2.989,5.269a4.328,4.328,0,0,1-.526.176c-5.46,1.234-10.563-.145-15.619-1.87l.009-.506c1.682-.1,3.371-.13,5.043-.324,2.387-.278,4.768-.635,7.136-1.046,1.009-.174,1.992-.561,1.443-1.972-.44-1.136-.934-1.722-2.459-1.4-8.324,1.757-16.685,3.341-25.033,4.986Z" transform="translate(-344.281 -272.02)" fill="#f6c31f"/>
        <path id="Path_2120" data-name="Path 2120" d="M380.979,290.333a4.227,4.227,0,0,1-5.79,1.985,4.34,4.34,0,0,1-1.709-5.914,4.461,4.461,0,0,1,5.735-1.963A4.326,4.326,0,0,1,380.979,290.333Z" transform="translate(-329.12 -274.974)" fill="#f6c31f"/>
      </g>
      <g id="X" transform="translate(255.637 138.063)">
        <g id="Group_1154" data-name="Group 1154" style="isolation: isolate">
          <path id="Path_2121" data-name="Path 2121" d="M259.986,207.287a1.72,1.72,0,0,1-.492,1.222,1.482,1.482,0,0,1-1.086.45,3.425,3.425,0,0,1-1.268-.265,3.467,3.467,0,0,0-1.3-.266,1.9,1.9,0,0,0-.613.1,1.676,1.676,0,0,0-.587.352,16.225,16.225,0,0,0-2.968,2.475q-1.22,1.319-2.4,2.765a3.307,3.307,0,0,0-.839,2.075,4.52,4.52,0,0,0,.43,1.928q.434.959.913,1.873.592,1.229,1.338,2.575a10.287,10.287,0,0,0,1.766,2.35.272.272,0,0,0,.228.115q.257,0,.587-.381t.732-.823a8.752,8.752,0,0,1,.861-.821,1.546,1.546,0,0,1,1.027-.378l.171,0a.754.754,0,0,1,.593.8,1.284,1.284,0,0,1-.405.939q-.661.736-1.335,1.459a11.579,11.579,0,0,1-1.434,1.3,6.748,6.748,0,0,1-1.661.93,5.319,5.319,0,0,1-1.983.344,1.538,1.538,0,0,1-1-.42,5.286,5.286,0,0,1-.933-1.1,13.509,13.509,0,0,1-.875-1.573q-.42-.888-.842-1.83t-.829-1.859q-.406-.915-.83-1.659a32.784,32.784,0,0,0-2.355,2.735,31.128,31.128,0,0,1-2.428,2.792,13.046,13.046,0,0,1-2.752,2.164,6.378,6.378,0,0,1-3.326.847c-.266,0-.537-.018-.813-.047a5.668,5.668,0,0,1-.839-.162.988.988,0,0,1-.581-.532,1.935,1.935,0,0,1-.208-.9,1.468,1.468,0,0,1,.031-.313,3.545,3.545,0,0,1,.335-.91c.144-.266.292-.416.445-.454.379.041.769.087,1.167.136a10.163,10.163,0,0,0,1.2.08,7.062,7.062,0,0,0,1.884-.245,4.886,4.886,0,0,0,1.859-1.014q1.321-1.36,2.743-3.118t2.631-3.518q-.869-2.172-1.994-4.546t-2.021-4.575a.5.5,0,0,0-.483-.346,1.517,1.517,0,0,0-.8.294q-.459.3-.945.664t-.974.664a1.763,1.763,0,0,1-.914.294.864.864,0,0,1-.654-.318,2.418,2.418,0,0,1-.448-1.086.775.775,0,0,1-.027-.229.942.942,0,0,1,.174-.553,2.4,2.4,0,0,1,.388-.425,2.6,2.6,0,0,1,.443-.312c.153-.084.277-.154.373-.211a16.3,16.3,0,0,1,2.911-.508q1.454-.119,2.908-.11,1.2.009,2.365.044l2.281.072a.649.649,0,0,1,.5.2.66.66,0,0,1,.184.457,1,1,0,0,1-.291.682.683.683,0,0,1-.486.268c-.209.027-.41.046-.6.053a2.5,2.5,0,0,0-.5.069.264.264,0,0,0-.216.283.616.616,0,0,0,.055.286q.417,1.172.882,2.229a17.4,17.4,0,0,0,1.2,2.232q1.147-1.105,2.283-2.408a28.444,28.444,0,0,1,2.368-2.424,12.593,12.593,0,0,1,2.635-1.849,6.464,6.464,0,0,1,3.084-.722c.208,0,.422.012.641.034s.442.05.67.089a1.475,1.475,0,0,1,.752.561A1.541,1.541,0,0,1,259.986,207.287Z" transform="translate(-231.661 -205.674)" fill="#f6c31f"/>
        </g>
      </g>
      <g id="Group_1155" data-name="Group 1155" transform="translate(294.826 399.467)">
        <path id="Path_2122" data-name="Path 2122" d="M259.754,381.5a26.8,26.8,0,0,1,5.394-.537,7.951,7.951,0,0,1,3.5,1.768,1.854,1.854,0,0,1,.46,1.761,2.761,2.761,0,0,1-1.878,1.087,10.626,10.626,0,0,1-2.925-.462c-2.925-.641-4.524.694-4.1,3.676a28.784,28.784,0,0,0,1.317,4.494c.179.569.43,1.113.763,1.966-3.56-2.881-6.812-8.524-3.815-12.844Z" transform="translate(-257.291 -374.363)" fill="#f6c31f"/>
        <path id="Path_2123" data-name="Path 2123" d="M280.3,378.451a15.035,15.035,0,0,1,.353,8.488c-.852,3.24-3.037,4.6-6.128,3.387a13.155,13.155,0,0,1-4.307-2.983,2.991,2.991,0,0,1-.362-2.8c.619-1.107,1.858-.566,2.777.006.8.5,1.509,1.121,2.286,1.648,1.534,1.04,2.514.781,3.19-.927a12.079,12.079,0,0,0,.425-7.706c-.132-.492-.471-1.038.494-.911Z" transform="translate(-250.748 -376.634)" fill="#f6c31f"/>
        <path id="Path_2124" data-name="Path 2124" d="M267.219,417.627l.751-21.313a7.581,7.581,0,0,1-2.532-.78c-.748-.59-1.645-1.605-1.61-2.4.037-.768,1.07-1.635,1.859-2.176a3.767,3.767,0,0,1,2.263-.5c3.327.249,6.677.43,9.956,1,2.4.417,3.115,1.833,2.855,4.274a3.641,3.641,0,0,1-.067.466c-1.147,4.609-4.139,7.949-7.375,11.124l-.379-.2c.564-1.313,1.187-2.6,1.677-3.945.7-1.914,1.338-3.855,1.928-5.806.252-.832.335-1.725-.945-1.847-1.029-.1-1.661.052-2,1.329-1.844,6.98-3.832,13.92-5.769,20.874Z" transform="translate(-253.834 -369.326)" fill="#f6c31f"/>
        <path id="Path_2125" data-name="Path 2125" d="M271.865,378.357a3.59,3.59,0,0,1-.7,5.147,3.683,3.683,0,0,1-5.135-.96,3.788,3.788,0,0,1,.7-5.1A3.672,3.672,0,0,1,271.865,378.357Z" transform="translate(-253.029 -376.566)" fill="#f6c31f"/>
      </g>
      <g id="X-2" data-name="X" transform="translate(323.876 410.859)">
        <g id="Group_1156" data-name="Group 1156" style="isolation: isolate">
          <path id="Path_2126" data-name="Path 2126" d="M288.623,384.5a1.043,1.043,0,0,1,.187.781.9.9,0,0,1-.382.607,2.093,2.093,0,0,1-.723.315,2.145,2.145,0,0,0-.739.324,1.175,1.175,0,0,0-.272.265,1.031,1.031,0,0,0-.168.382,9.9,9.9,0,0,0-.6,2.28q-.144,1.085-.219,2.222a2.009,2.009,0,0,0,.313,1.329,2.766,2.766,0,0,0,.893.809c.37.216.742.417,1.116.609q.727.4,1.573.81a6.267,6.267,0,0,0,1.708.546.164.164,0,0,0,.154-.023.53.53,0,0,0,.157-.4c.02-.2.044-.427.075-.668a5.212,5.212,0,0,1,.139-.713.942.942,0,0,1,.378-.55l.086-.06a.461.461,0,0,1,.578.19.784.784,0,0,1,.13.61q-.069.6-.15,1.2a7.114,7.114,0,0,1-.254,1.154,4.143,4.143,0,0,1-.5,1.047,3.26,3.26,0,0,1-.867.872.937.937,0,0,1-.644.142,3.238,3.238,0,0,1-.853-.22,7.981,7.981,0,0,1-.989-.476c-.349-.194-.7-.4-1.066-.613l-1.069-.633a11.182,11.182,0,0,0-1-.532,20,20,0,0,0-.206,2.193,19.2,19.2,0,0,1-.223,2.245,7.957,7.957,0,0,1-.607,2.047,3.893,3.893,0,0,1-1.356,1.6,4.793,4.793,0,0,1-.422.261,3.193,3.193,0,0,1-.474.216.6.6,0,0,1-.477-.06,1.169,1.169,0,0,1-.42-.373.891.891,0,0,1-.1-.167,2.192,2.192,0,0,1-.154-.572.5.5,0,0,1,.061-.382c.2-.113.414-.228.63-.344a6.465,6.465,0,0,0,.624-.382,4.387,4.387,0,0,0,.85-.786,3.006,3.006,0,0,0,.569-1.162q.177-1.142.265-2.518t.069-2.68q-1.2-.773-2.6-1.558t-2.621-1.564a.3.3,0,0,0-.361,0,.928.928,0,0,0-.3.428c-.083.206-.161.428-.235.665s-.159.46-.251.673a1.068,1.068,0,0,1-.352.468.524.524,0,0,1-.437.073,1.48,1.48,0,0,1-.607-.382.461.461,0,0,1-.093-.1.566.566,0,0,1-.109-.338,1.378,1.378,0,0,1,.043-.349,1.632,1.632,0,0,1,.11-.312c.047-.095.084-.174.112-.235a9.952,9.952,0,0,1,1.269-1.28q.684-.573,1.41-1.081.6-.417,1.193-.812t1.161-.769a.4.4,0,0,1,.32-.075.4.4,0,0,1,.252.164.615.615,0,0,1,.1.442.425.425,0,0,1-.148.3c-.095.089-.188.167-.28.238a1.422,1.422,0,0,0-.223.21.162.162,0,0,0-.008.217.385.385,0,0,0,.128.122q.622.436,1.226.8a10.481,10.481,0,0,0,1.382.69q.181-.954.286-2a17.864,17.864,0,0,1,.324-2.041,7.774,7.774,0,0,1,.659-1.85,3.961,3.961,0,0,1,1.281-1.446c.1-.072.214-.142.33-.209s.237-.13.365-.191a.9.9,0,0,1,.572.014A.934.934,0,0,1,288.623,384.5Z" transform="translate(-276.29 -384.085)" fill="#f6c31f"/>
        </g>
      </g>
      <g id="Group_1157" data-name="Group 1157" transform="translate(361.243 153.865)">
        <path id="Path_2127" data-name="Path 2127" d="M340.052,217.6c1.006,2.038,2.39,4.009,2.885,6.138.341,1.471-.373,3.211-.971,4.723a2.676,2.676,0,0,1-2.18,1.157,3.706,3.706,0,0,1-2.211-1.821,11.454,11.454,0,0,1-.555-3.592c-.312-3.653-2.745-5.06-6.579-3.523a41.59,41.59,0,0,0-5.508,3.118c-.69.408-1.323.893-2.333,1.581,2.442-5.18,8.715-10.968,15.717-8.968Z" transform="translate(-289.157 -216.009)" fill="#f6c31f"/>
        <path id="Path_2128" data-name="Path 2128" d="M352.118,240.115a23.121,23.121,0,0,1-11.255,3.385c-4.691.136-7.39-1.949-7-6a14.684,14.684,0,0,1,2.278-6.093A4.464,4.464,0,0,1,339.75,230c1.735.339,1.5,1.98,1.106,3.257-.346,1.105-.9,2.161-1.3,3.258-.781,2.161-.041,3.22,2.521,3.413a18.89,18.89,0,0,0,10.52-2.2c.609-.326,1.2-.914,1.42.26Z" transform="translate(-283.22 -208.623)" fill="#f6c31f"/>
        <path id="Path_2129" data-name="Path 2129" d="M300.728,239.2l28.917-6.581c-.018-1.141-.382-2.326.034-3.242.491-1.083,1.494-2.491,2.57-2.726,1.044-.226,2.624.682,3.667,1.417a4.5,4.5,0,0,1,1.583,2.477,111.381,111.381,0,0,1,2.65,12.021c.4,2.954-1.214,4.292-4.595,4.841a5.259,5.259,0,0,1-.653.084c-6.647.271-12.333-2.067-17.893-4.749l.118-.514c1.989.2,3.972.479,5.969.584,2.852.15,5.713.219,8.569.228,1.217,0,2.448-.211,2.1-1.754-.28-1.24-.736-1.928-2.586-1.876-10.11.281-20.226.381-30.339.544Z" transform="translate(-300.728 -210.395)" fill="#f6c31f"/>
        <path id="Path_2130" data-name="Path 2130" d="M346.153,230.852a5.507,5.507,0,0,1-7.191.976,4.13,4.13,0,0,1-.771-6.355,5.842,5.842,0,0,1,7.122-.963A4.123,4.123,0,0,1,346.153,230.852Z" transform="translate(-281.519 -211.935)" fill="#f6c31f"/>
      </g>
      <g id="X-3" data-name="X" transform="translate(391.736 191.372)">
        <g id="Group_1158" data-name="Group 1158" style="isolation: isolate">
          <path id="Path_2131" data-name="Path 2131" d="M350.406,251.886a1.53,1.53,0,0,1-.976.492,1.4,1.4,0,0,1-.968-.237,2.647,2.647,0,0,1-.714-.737,2.7,2.7,0,0,0-.732-.752,1.694,1.694,0,0,0-.463-.226,1.62,1.62,0,0,0-.581-.063,15.958,15.958,0,0,0-3.3.09q-1.516.213-3.07.521a2.927,2.927,0,0,0-1.661.833,3.233,3.233,0,0,0-.726,1.33q-.211.764-.372,1.521-.25,1-.456,2.128a6.723,6.723,0,0,0-.049,2.194.194.194,0,0,0,.093.171.844.844,0,0,0,.595.047c.283-.05.592-.1.927-.147a8.585,8.585,0,0,1,1.012-.087,1.457,1.457,0,0,1,.891.251l.115.08a.512.512,0,0,1-.023.745,1.154,1.154,0,0,1-.768.365q-.833.128-1.668.243a11.19,11.19,0,0,1-1.651.105,6.563,6.563,0,0,1-1.607-.217,4.762,4.762,0,0,1-1.515-.709,1.12,1.12,0,0,1-.45-.7,3.453,3.453,0,0,1-.047-1.078,8.8,8.8,0,0,1,.242-1.327c.122-.477.254-.965.4-1.463s.281-.991.42-1.474a12.561,12.561,0,0,0,.315-1.356q-1.468.177-3.027.524a30.441,30.441,0,0,1-3.1.524,12.806,12.806,0,0,1-2.992.006,5.911,5.911,0,0,1-2.687-1.032q-.266-.186-.521-.4a4.608,4.608,0,0,1-.48-.482.665.665,0,0,1-.112-.579,1.37,1.37,0,0,1,.335-.625,1.232,1.232,0,0,1,.185-.17,3.123,3.123,0,0,1,.7-.381.792.792,0,0,1,.538-.063q.351.3.714.618a8.618,8.618,0,0,0,.765.6,6.369,6.369,0,0,0,1.4.722,4.757,4.757,0,0,0,1.787.26q1.6-.193,3.489-.572t3.624-.856q.56-1.677,1.054-3.59t1.049-3.619a.345.345,0,0,0-.144-.425,1.417,1.417,0,0,0-.693-.194q-.466-.037-.986-.044t-1.006-.058a1.626,1.626,0,0,1-.769-.249.623.623,0,0,1-.274-.486,1.651,1.651,0,0,1,.271-.846.6.6,0,0,1,.1-.147.82.82,0,0,1,.41-.246,2.307,2.307,0,0,1,.485-.07,2.56,2.56,0,0,1,.463.021c.147.02.268.035.361.046a14.955,14.955,0,0,1,2.228,1.041q1.041.6,2.015,1.274.8.555,1.57,1.115t1.5,1.09a.472.472,0,0,1,.228.349.449.449,0,0,1-.118.353.9.9,0,0,1-.555.268.666.666,0,0,1-.468-.067c-.156-.079-.3-.162-.431-.245a2.252,2.252,0,0,0-.372-.19.25.25,0,0,0-.3.067.454.454,0,0,0-.113.194q-.335.881-.58,1.717a11.515,11.515,0,0,0-.37,1.861q1.353-.119,2.8-.365a28.46,28.46,0,0,1,2.872-.335,12.382,12.382,0,0,1,2.748.125,5.917,5.917,0,0,1,2.456,1c.139.1.278.2.414.313s.271.232.4.361a.99.99,0,0,1,.211.676A1.073,1.073,0,0,1,350.406,251.886Z" transform="translate(-320.671 -240.539)" fill="#f6c31f"/>
        </g>
      </g>
      <g id="Group_1159" data-name="Group 1159" transform="translate(379.712)">
        <path id="Path_2132" data-name="Path 2132" d="M352.133,116.972c1,2.038,2.388,4.009,2.884,6.138.341,1.471-.373,3.211-.971,4.723a2.671,2.671,0,0,1-2.18,1.156,3.7,3.7,0,0,1-2.211-1.82,11.5,11.5,0,0,1-.555-3.592c-.312-3.653-2.745-5.06-6.579-3.523a41.473,41.473,0,0,0-5.506,3.118c-.691.408-1.324.893-2.335,1.581,2.442-5.18,8.716-10.968,15.717-8.968Z" transform="translate(-301.236 -115.38)" fill="#f6c31f"/>
        <path id="Path_2133" data-name="Path 2133" d="M364.2,139.486a23.1,23.1,0,0,1-11.255,3.384c-4.691.138-7.39-1.95-7-6a14.683,14.683,0,0,1,2.278-6.093,4.468,4.468,0,0,1,3.613-1.405c1.735.339,1.5,1.98,1.105,3.257-.346,1.106-.9,2.161-1.3,3.257-.781,2.162-.041,3.222,2.521,3.414a18.89,18.89,0,0,0,10.52-2.2c.609-.326,1.2-.914,1.42.26Z" transform="translate(-295.299 -107.994)" fill="#f6c31f"/>
        <path id="Path_2134" data-name="Path 2134" d="M312.807,138.575l28.919-6.581c-.02-1.141-.384-2.326.032-3.242.491-1.083,1.494-2.491,2.57-2.726,1.044-.226,2.624.682,3.667,1.417a4.5,4.5,0,0,1,1.583,2.477,111.387,111.387,0,0,1,2.65,12.021c.4,2.954-1.214,4.292-4.595,4.841a5.223,5.223,0,0,1-.653.084c-6.647.271-12.333-2.067-17.893-4.749l.118-.514c1.989.2,3.972.479,5.969.584,2.852.15,5.713.219,8.569.228,1.217,0,2.449-.213,2.1-1.754-.28-1.242-.735-1.928-2.586-1.876-10.11.281-20.226.381-30.339.544Z" transform="translate(-312.807 -109.766)" fill="#f6c31f"/>
        <path id="Path_2135" data-name="Path 2135" d="M358.232,130.223a5.509,5.509,0,0,1-7.191.976,4.13,4.13,0,0,1-.771-6.355,5.842,5.842,0,0,1,7.122-.963A4.123,4.123,0,0,1,358.232,130.223Z" transform="translate(-293.598 -111.306)" fill="#f6c31f"/>
      </g>
      <g id="X-4" data-name="X" transform="translate(410.206 37.507)">
        <g id="Group_1160" data-name="Group 1160" style="isolation: isolate">
          <path id="Path_2136" data-name="Path 2136" d="M362.485,151.257a1.53,1.53,0,0,1-.976.492,1.4,1.4,0,0,1-.968-.237,2.648,2.648,0,0,1-.714-.737,2.681,2.681,0,0,0-.732-.752,1.7,1.7,0,0,0-.463-.226,1.62,1.62,0,0,0-.581-.063,15.854,15.854,0,0,0-3.3.09q-1.516.213-3.07.521a2.931,2.931,0,0,0-1.661.833,3.233,3.233,0,0,0-.726,1.33q-.211.764-.372,1.521-.25,1-.456,2.128a6.721,6.721,0,0,0-.049,2.194.194.194,0,0,0,.093.171.838.838,0,0,0,.595.046c.283-.049.592-.1.927-.145a8.582,8.582,0,0,1,1.012-.087,1.457,1.457,0,0,1,.891.251l.115.079a.512.512,0,0,1-.023.745,1.154,1.154,0,0,1-.768.365q-.833.128-1.668.243a11.2,11.2,0,0,1-1.651.105,6.563,6.563,0,0,1-1.607-.217,4.81,4.81,0,0,1-1.515-.709,1.12,1.12,0,0,1-.45-.7,3.455,3.455,0,0,1-.047-1.078,8.8,8.8,0,0,1,.242-1.327c.122-.477.254-.965.4-1.463s.281-.991.421-1.474a12.5,12.5,0,0,0,.315-1.358q-1.468.179-3.027.526a30.8,30.8,0,0,1-3.1.524,12.8,12.8,0,0,1-2.992,0,5.876,5.876,0,0,1-2.686-1.032c-.177-.122-.352-.257-.521-.4a4.607,4.607,0,0,1-.48-.482.664.664,0,0,1-.11-.579,1.352,1.352,0,0,1,.333-.625,1.231,1.231,0,0,1,.185-.17,3.123,3.123,0,0,1,.7-.381.792.792,0,0,1,.538-.063q.351.3.714.618a8.529,8.529,0,0,0,.765.6,6.307,6.307,0,0,0,1.4.723,4.757,4.757,0,0,0,1.787.26q1.6-.193,3.489-.572t3.624-.856q.56-1.677,1.054-3.59t1.049-3.619a.345.345,0,0,0-.144-.425,1.417,1.417,0,0,0-.693-.194q-.466-.037-.986-.044t-1.006-.058a1.626,1.626,0,0,1-.769-.249.618.618,0,0,1-.272-.486,1.631,1.631,0,0,1,.269-.846.6.6,0,0,1,.1-.147.827.827,0,0,1,.41-.246,2.3,2.3,0,0,1,.485-.07,2.559,2.559,0,0,1,.463.021c.147.02.268.035.361.046a14.956,14.956,0,0,1,2.228,1.041q1.041.6,2.015,1.274.8.555,1.57,1.113l1.5,1.092a.47.47,0,0,1,.228.349.443.443,0,0,1-.118.353.9.9,0,0,1-.555.268.667.667,0,0,1-.468-.067c-.156-.081-.3-.162-.431-.245a2.252,2.252,0,0,0-.372-.19.25.25,0,0,0-.3.067.454.454,0,0,0-.113.194q-.335.881-.58,1.716a11.528,11.528,0,0,0-.37,1.862q1.353-.119,2.8-.365a28.513,28.513,0,0,1,2.872-.335,12.382,12.382,0,0,1,2.748.125,5.917,5.917,0,0,1,2.456,1c.141.1.278.2.414.313s.271.232.4.361a.99.99,0,0,1,.211.676A1.073,1.073,0,0,1,362.485,151.257Z" transform="translate(-332.751 -139.91)" fill="#f6c31f"/>
        </g>
      </g>
    </g>
  </g>
</svg>
